<?xml version="1.0" encoding="UTF-8"?>
<!DOCTYPE svg PUBLIC "-//W3C//DTD SVG 1.1//EN" "http://www.w3.org/Graphics/SVG/1.1/DTD/svg11.dtd">
<svg version="1.2" width="73.48mm" height="149.03mm" viewBox="9275 1491 7348 14903" preserveAspectRatio="xMidYMid" fill-rule="evenodd" stroke-width="28.222" stroke-linejoin="round" xmlns="http://www.w3.org/2000/svg" xmlns:ooo="http://xml.openoffice.org/svg/export" xmlns:xlink="http://www.w3.org/1999/xlink" xmlns:presentation="http://sun.com/xmlns/staroffice/presentation" xmlns:smil="http://www.w3.org/2001/SMIL20/" xmlns:anim="urn:oasis:names:tc:opendocument:xmlns:animation:1.0" xml:space="preserve">
 <defs class="ClipPathGroup">
  <clipPath id="presentation_clip_path" clipPathUnits="userSpaceOnUse">
   <rect x="9275" y="1491" width="7348" height="14903"/>
  </clipPath>
  <clipPath id="presentation_clip_path_shrink" clipPathUnits="userSpaceOnUse">
   <rect x="9282" y="1505" width="7334" height="14874"/>
  </clipPath>
 </defs>
 <defs class="TextShapeIndex">
  <g ooo:slide="id1" ooo:id-list="id3 id4 id5 id6"/>
 </defs>
 <defs class="EmbeddedBulletChars">
  <g id="bullet-char-template-57356" transform="scale(0.00048828125,-0.00048828125)">
   <path d="M 580,1141 L 1163,571 580,0 -4,571 580,1141 Z"/>
  </g>
  <g id="bullet-char-template-57354" transform="scale(0.00048828125,-0.00048828125)">
   <path d="M 8,1128 L 1137,1128 1137,0 8,0 8,1128 Z"/>
  </g>
  <g id="bullet-char-template-10146" transform="scale(0.00048828125,-0.00048828125)">
   <path d="M 174,0 L 602,739 174,1481 1456,739 174,0 Z M 1358,739 L 309,1346 659,739 1358,739 Z"/>
  </g>
  <g id="bullet-char-template-10132" transform="scale(0.00048828125,-0.00048828125)">
   <path d="M 2015,739 L 1276,0 717,0 1260,543 174,543 174,936 1260,936 717,1481 1274,1481 2015,739 Z"/>
  </g>
  <g id="bullet-char-template-10007" transform="scale(0.00048828125,-0.00048828125)">
   <path d="M 0,-2 C -7,14 -16,27 -25,37 L 356,567 C 262,823 215,952 215,954 215,979 228,992 255,992 264,992 276,990 289,987 310,991 331,999 354,1012 L 381,999 492,748 772,1049 836,1024 860,1049 C 881,1039 901,1025 922,1006 886,937 835,863 770,784 769,783 710,716 594,584 L 774,223 C 774,196 753,168 711,139 L 727,119 C 717,90 699,76 672,76 641,76 570,178 457,381 L 164,-76 C 142,-110 111,-127 72,-127 30,-127 9,-110 8,-76 1,-67 -2,-52 -2,-32 -2,-23 -1,-13 0,-2 Z"/>
  </g>
  <g id="bullet-char-template-10004" transform="scale(0.00048828125,-0.00048828125)">
   <path d="M 285,-33 C 182,-33 111,30 74,156 52,228 41,333 41,471 41,549 55,616 82,672 116,743 169,778 240,778 293,778 328,747 346,684 L 369,508 C 377,444 397,411 428,410 L 1163,1116 C 1174,1127 1196,1133 1229,1133 1271,1133 1292,1118 1292,1087 L 1292,965 C 1292,929 1282,901 1262,881 L 442,47 C 390,-6 338,-33 285,-33 Z"/>
  </g>
  <g id="bullet-char-template-9679" transform="scale(0.00048828125,-0.00048828125)">
   <path d="M 813,0 C 632,0 489,54 383,161 276,268 223,411 223,592 223,773 276,916 383,1023 489,1130 632,1184 813,1184 992,1184 1136,1130 1245,1023 1353,916 1407,772 1407,592 1407,412 1353,268 1245,161 1136,54 992,0 813,0 Z"/>
  </g>
  <g id="bullet-char-template-8226" transform="scale(0.00048828125,-0.00048828125)">
   <path d="M 346,457 C 273,457 209,483 155,535 101,586 74,649 74,723 74,796 101,859 155,911 209,963 273,989 346,989 419,989 480,963 531,910 582,859 608,796 608,723 608,648 583,586 532,535 482,483 420,457 346,457 Z"/>
  </g>
  <g id="bullet-char-template-8211" transform="scale(0.00048828125,-0.00048828125)">
   <path d="M -4,459 L 1135,459 1135,606 -4,606 -4,459 Z"/>
  </g>
  <g id="bullet-char-template-61548" transform="scale(0.00048828125,-0.00048828125)">
   <path d="M 173,740 C 173,903 231,1043 346,1159 462,1274 601,1332 765,1332 928,1332 1067,1274 1183,1159 1299,1043 1357,903 1357,740 1357,577 1299,437 1183,322 1067,206 928,148 765,148 601,148 462,206 346,322 231,437 173,577 173,740 Z"/>
  </g>
 </defs>
 <defs class="TextEmbeddedBitmaps"/>
 <g class="SlideGroup">
  <g>
   <g id="container-id1">
    <g id="id1" class="Slide" clip-path="url(#presentation_clip_path)">
     <g class="Page">
      <g class="com.sun.star.drawing.ClosedBezierShape">
       <g id="id3">
        <rect class="BoundingBox" stroke="none" fill="none" x="9275" y="1491" width="7349" height="14905"/>
        <path fill="rgb(127,191,255)" stroke="none" d="M 11147,11473 C 10870,11981 10731,12443 10731,12859 10731,13414 10939,13899 11355,14315 11771,14731 12279,14939 12880,14939 13573,14939 14128,14731 14543,14315 15006,13853 15237,13368 15237,12859 15237,12074 14890,11334 14197,10641 13781,10225 13157,9763 12325,9255 11494,8746 10800,8215 10246,7660 9599,7014 9275,6182 9275,5165 9275,4102 9622,3224 10315,2531 11008,1838 11886,1491 12949,1491 14058,1491 14936,1815 15583,2462 16276,3155 16623,3941 16623,4819 16623,5512 16461,6251 16138,7037 L 14821,6343 C 15052,5881 15167,5419 15167,4957 15167,4403 14982,3941 14613,3571 14197,3155 13642,2947 12949,2947 12348,2947 11794,3201 11286,3709 10916,4079 10731,4541 10731,5096 10731,5743 10893,6228 11216,6551 11632,6967 12256,7453 13088,8007 14058,8654 14821,9255 15375,9809 16207,10641 16623,11658 16623,12859 16623,13830 16276,14661 15583,15355 14890,16048 13989,16394 12880,16394 11863,16394 11008,16048 10315,15355 9622,14661 9275,13830 9275,12859 9275,12074 9506,11334 9969,10641 L 11147,11473 Z"/>
       </g>
      </g>
      <g class="Group">
       <g class="com.sun.star.drawing.ClosedBezierShape">
        <g id="id4">
         <rect class="BoundingBox" stroke="none" fill="none" x="9914" y="12482" width="2790" height="2849"/>
         <path fill="rgb(0,0,127)" stroke="none" d="M 10417,15056 L 10417,14733 12202,14733 12202,15056 10417,15056 Z M 12202,14345 L 12202,14643 10417,14643 10417,14345 12202,14345 Z M 12174,14252 L 10439,14252 10215,14153 10215,15329 10249,15329 C 10277,15329 10303,15324 10329,15316 10354,15308 10375,15299 10391,15288 10408,15278 10416,15268 10417,15261 L 10417,15146 12202,15146 12202,15326 12233,15326 C 12256,15326 12280,15321 12306,15313 12333,15305 12356,15296 12375,15286 12394,15276 12405,15267 12407,15261 L 12407,14373 C 12432,14368 12455,14360 12476,14350 12497,14339 12512,14328 12522,14317 L 12283,14134 12174,14252 Z M 10672,13911 L 10672,13647 11951,13647 11951,13911 10672,13911 Z M 11951,13299 L 11951,13557 10672,13557 10672,13299 11951,13299 Z M 11982,14110 C 12006,14109 12031,14104 12057,14095 12083,14086 12106,14076 12125,14065 12144,14054 12154,14045 12156,14038 L 12156,13327 C 12181,13322 12204,13314 12225,13304 12246,13293 12261,13282 12271,13271 L 12032,13088 11923,13206 10691,13206 10473,13110 10473,14138 10501,14138 C 10530,14137 10558,14133 10584,14125 10610,14117 10631,14107 10647,14097 10663,14086 10671,14077 10672,14069 L 10672,14001 11951,14001 11951,14110 11982,14110 Z M 12296,12799 L 11830,12799 11830,12597 C 11868,12592 11896,12583 11913,12568 11929,12554 11939,12535 11942,12514 L 11631,12483 11631,12799 10964,12799 10964,12597 C 11004,12592 11031,12583 11048,12568 11064,12554 11073,12535 11076,12514 L 10768,12483 10768,12799 9914,12799 9933,12892 10768,12892 10768,13147 10799,13147 C 10843,13146 10881,13140 10913,13129 10945,13117 10962,13106 10964,13094 L 10964,12892 11631,12892 11631,13138 11665,13138 C 11716,13135 11755,13127 11785,13114 11814,13102 11829,13091 11830,13082 L 11830,12892 12618,12892 C 12641,12892 12659,12888 12674,12880 12689,12872 12699,12859 12702,12842 12668,12809 12630,12776 12590,12742 12549,12708 12514,12679 12485,12655 12455,12632 12440,12620 12438,12619 L 12296,12799 Z"/>
        </g>
       </g>
       <g class="com.sun.star.drawing.ClosedBezierShape">
        <g id="id5">
         <rect class="BoundingBox" stroke="none" fill="none" x="12992" y="12485" width="2808" height="2848"/>
         <path fill="rgb(0,0,127)" stroke="none" d="M 12999,13643 C 13044,13668 13089,13699 13133,13737 13177,13775 13216,13816 13249,13860 13282,13904 13306,13948 13319,13991 13361,14014 13397,14019 13427,14005 13457,13992 13475,13967 13482,13931 13489,13894 13480,13854 13454,13811 13428,13767 13381,13726 13312,13690 13243,13653 13148,13627 13027,13612 L 12999,13643 Z M 13229,13147 C 13273,13173 13318,13206 13362,13245 13407,13284 13447,13326 13482,13370 13517,13415 13543,13460 13558,13504 13600,13525 13636,13529 13665,13515 13695,13501 13712,13476 13719,13440 13725,13404 13715,13364 13688,13320 13661,13276 13613,13236 13544,13198 13474,13160 13379,13133 13257,13116 L 13229,13147 Z M 13825,13575 C 13729,13747 13650,13889 13588,14000 13526,14110 13477,14198 13441,14262 13405,14326 13378,14374 13359,14407 13340,14440 13325,14465 13314,14481 13303,14498 13293,14515 13281,14531 13267,14558 13254,14574 13244,14580 13233,14586 13220,14588 13204,14587 L 13067,14587 13067,14658 C 13096,14659 13122,14663 13144,14668 13166,14674 13187,14683 13207,14695 13240,14716 13260,14770 13267,14857 13275,14943 13269,15056 13250,15195 13255,15239 13266,15272 13282,15294 13299,15317 13320,15328 13347,15328 13397,15328 13435,15312 13461,15280 13487,15247 13502,15202 13505,15142 13507,15075 13503,15016 13492,14964 13481,14912 13469,14865 13457,14823 13445,14781 13438,14741 13437,14705 13436,14670 13440,14634 13450,14595 13460,14557 13472,14519 13487,14481 13495,14458 13510,14422 13533,14372 13555,14321 13581,14263 13611,14196 13642,14129 13673,14059 13707,13986 13740,13913 13771,13842 13802,13774 13832,13706 13858,13646 13881,13593 L 13825,13575 Z M 15324,13879 L 15324,14192 14837,14192 14837,13879 15324,13879 Z M 14837,14608 L 14837,14282 15324,14282 15324,14608 14837,14608 Z M 14150,14608 L 14150,14282 14641,14282 14641,14608 14150,14608 Z M 14641,13879 L 14641,14192 14150,14192 14150,13879 14641,13879 Z M 15377,13423 L 14837,13423 14837,13231 C 14875,13226 14902,13216 14918,13202 14935,13187 14945,13169 14949,13147 L 14641,13113 14641,13423 13846,13423 13868,13516 14641,13516 14641,13789 14166,13789 13958,13687 13958,15331 13989,15331 C 14032,15330 14070,15321 14101,15305 14132,15289 14148,15274 14150,15260 L 14150,14698 14641,14698 14641,15244 14678,15245 C 14702,15244 14726,15240 14751,15232 14775,15225 14795,15215 14812,15204 14828,15193 14836,15183 14837,15173 L 14837,14698 15324,14698 15324,15046 C 15324,15066 15320,15080 15312,15089 15303,15098 15286,15102 15262,15102 15247,15102 15224,15101 15194,15100 15164,15098 15133,15096 15100,15094 15067,15092 15039,15090 15016,15089 14993,15087 14981,15087 14980,15087 L 14980,15133 C 15032,15141 15074,15150 15106,15161 15138,15172 15163,15186 15181,15201 15198,15215 15211,15234 15219,15256 15228,15278 15233,15303 15234,15332 15316,15323 15378,15308 15419,15285 15459,15262 15486,15233 15499,15196 15511,15159 15517,15115 15516,15065 L 15516,13919 C 15549,13913 15577,13903 15600,13892 15623,13880 15640,13869 15649,13857 L 15395,13665 15293,13789 14837,13789 14837,13516 15668,13516 C 15690,13516 15708,13512 15721,13504 15735,13496 15744,13483 15749,13466 15716,13436 15682,13405 15645,13373 15607,13342 15576,13316 15549,13295 15522,13274 15508,13262 15507,13262 L 15377,13423 Z M 14983,13097 C 15015,13119 15048,13146 15080,13178 15112,13210 15141,13243 15167,13278 15192,13313 15212,13347 15225,13380 15260,13400 15291,13405 15318,13395 15346,13386 15364,13367 15373,13338 15382,13310 15377,13278 15358,13242 15340,13207 15303,13173 15247,13141 15192,13110 15113,13086 15011,13069 L 14983,13097 Z M 15392,12796 L 14948,12796 14948,12604 C 14987,12598 15014,12588 15031,12574 15048,12560 15056,12542 15057,12520 L 14749,12486 14749,12796 14023,12796 14023,12604 C 14061,12598 14089,12587 14105,12573 14122,12558 14131,12541 14132,12520 L 13824,12486 13824,12796 12992,12796 13014,12889 13824,12889 13824,13128 13855,13128 C 13883,13128 13909,13125 13935,13120 13960,13115 13981,13108 13997,13101 14014,13093 14022,13086 14023,13078 L 14023,12889 14749,12889 14749,13122 14780,13122 C 14831,13119 14871,13112 14901,13099 14932,13087 14947,13075 14948,13063 L 14948,12889 15718,12889 C 15740,12889 15758,12885 15772,12877 15786,12869 15795,12856 15798,12839 15764,12806 15727,12773 15687,12739 15647,12705 15612,12676 15583,12653 15554,12629 15539,12617 15538,12616 L 15392,12796 Z"/>
        </g>
       </g>
      </g>
      <g class="com.sun.star.drawing.ClosedBezierShape">
       <g id="id6">
        <rect class="BoundingBox" stroke="none" fill="none" x="11644" y="2292" width="2644" height="4182"/>
        <path fill="rgb(0,0,127)" stroke="none" d="M 12682,5125 L 13129,5125 C 13110,5009 13115,4904 13147,4810 13178,4716 13228,4630 13294,4552 13361,4473 13437,4399 13523,4328 13608,4257 13696,4185 13784,4114 13873,4043 13955,3968 14031,3889 14107,3811 14168,3724 14214,3630 14261,3536 14285,3430 14286,3313 14285,3103 14233,2922 14130,2770 14028,2618 13882,2500 13694,2418 13506,2335 13283,2294 13026,2293 12828,2294 12647,2320 12483,2372 12319,2424 12168,2497 12030,2592 11893,2686 11764,2798 11645,2926 L 11939,3198 C 12093,3032 12257,2908 12430,2825 12604,2743 12785,2702 12971,2702 13156,2703 13311,2731 13433,2787 13556,2842 13648,2918 13709,3016 13770,3113 13800,3225 13800,3351 13799,3440 13775,3522 13729,3598 13683,3674 13623,3747 13549,3816 13474,3886 13394,3956 13307,4025 13220,4095 13134,4167 13051,4242 12967,4318 12893,4399 12829,4486 12765,4573 12719,4669 12690,4774 12662,4879 12659,4996 12682,5125 Z M 12474,6042 C 12475,6130 12496,6206 12535,6270 12575,6334 12628,6384 12695,6419 12761,6455 12835,6473 12916,6473 12997,6473 13071,6455 13136,6419 13202,6384 13254,6334 13293,6270 13332,6206 13352,6130 13353,6042 13352,5954 13332,5878 13293,5815 13254,5751 13202,5703 13136,5668 13071,5634 12997,5616 12916,5616 12835,5616 12761,5634 12695,5668 12628,5703 12575,5751 12535,5815 12496,5878 12475,5954 12474,6042 Z"/>
       </g>
      </g>
     </g>
    </g>
   </g>
  </g>
 </g>
</svg>