<?xml version="1.0" encoding="UTF-8" standalone="no"?><svg xmlns="http://www.w3.org/2000/svg" xmlns:xlink="http://www.w3.org/1999/xlink" contentScriptType="application/ecmascript" contentStyleType="text/css" height="750px" preserveAspectRatio="none" style="width:561px;height:750px;" version="1.1" viewBox="0 0 561 750" width="561px" zoomAndPan="magnify"><defs/><g><!--cluster I--><polygon fill="#FFFFFF" points="63.1353,16,299.1353,16,306.1353,42.2719,376.6353,42.2719,376.6353,333,63.1353,333,63.1353,16" style="stroke: #909090; stroke-width: 1.5;"/><line style="stroke: #909090; stroke-width: 1.5;" x1="63.1353" x2="306.1353" y1="42.2719" y2="42.2719"/><text fill="#000000" font-family="Noto Sans CJK JP" font-size="14" font-weight="bold" lengthAdjust="spacingAndGlyphs" textLength="230" x="67.1353" y="34.2399">I:情報/コミュニケーション/メディア</text><!--cluster II--><polygon fill="#FFFFFF" points="57.6353,341,134.6353,341,141.6353,367.2719,369.1353,367.2719,369.1353,703,57.6353,703,57.6353,341" style="stroke: #909090; stroke-width: 1.5;"/><line style="stroke: #909090; stroke-width: 1.5;" x1="57.6353" x2="141.6353" y1="367.2719" y2="367.2719"/><text fill="#000000" font-family="Noto Sans CJK JP" font-size="14" font-weight="bold" lengthAdjust="spacingAndGlyphs" textLength="71" x="61.6353" y="359.2399">II:問題解決</text><!--cluster III--><polygon fill="#FFFFFF" points="420.6353,373,474.6353,373,481.6353,399.2719,539.6353,399.2719,539.6353,738,420.6353,738,420.6353,373" style="stroke: #909090; stroke-width: 1.5;"/><line style="stroke: #909090; stroke-width: 1.5;" x1="420.6353" x2="481.6353" y1="399.2719" y2="399.2719"/><text fill="#000000" font-family="Noto Sans CJK JP" font-size="14" font-weight="bold" lengthAdjust="spacingAndGlyphs" textLength="48" x="424.6353" y="391.2399">III:応用</text><!--class 記号と意味--><rect fill="#FFFFFF" height="111.7115" id="記号と意味" style="stroke: #9090FF; stroke-width: 1.5;" width="92" x="71.1353" y="47"/><ellipse cx="86.1353" cy="63" fill="#FFFFFF" rx="11" ry="11" style="stroke: #9090FF; stroke-width: 1.0;"/><path d="M82.2603,69.25 L89.5103,69.25 L89.5103,67.1719 L87.4166,67.1719 C86.8228,67.1719 86.2603,67.2344 85.6041,67.2969 C87.4634,64.875 89.0259,62.5938 89.0259,60.4219 C89.0259,58.1875 87.6666,56.7031 85.6666,56.7031 C84.1666,56.7031 83.1666,57.3438 82.1353,58.4844 L83.5416,59.8906 C84.0259,59.2344 84.6197,58.6875 85.3384,58.6875 C86.1666,58.6875 86.6197,59.3906 86.6197,60.5625 C86.6197,62.6875 84.9009,64.8594 82.2603,67.8281 L82.2603,69.25 Z "/><text fill="#000000" font-family="Noto Sans CJK JP" font-size="12" lengthAdjust="spacingAndGlyphs" textLength="60" x="100.1353" y="68.232">記号と意味</text><line style="stroke: #9090FF; stroke-width: 1.5;" x1="72.1353" x2="162.1353" y1="79" y2="79"/><ellipse cx="82.1353" cy="92.4639" fill="none" rx="3" ry="3" style="stroke: #038048; stroke-width: 1.0;"/><text fill="#000000" font-family="Noto Sans CJK JP" font-size="11" lengthAdjust="spacingAndGlyphs" textLength="22" x="91.1353" y="95.7599">記号</text><ellipse cx="82.1353" cy="108.3918" fill="none" rx="3" ry="3" style="stroke: #038048; stroke-width: 1.0;"/><text fill="#000000" font-family="Noto Sans CJK JP" font-size="11" lengthAdjust="spacingAndGlyphs" textLength="22" x="91.1353" y="111.6878">意味</text><ellipse cx="82.1353" cy="124.3197" fill="none" rx="3" ry="3" style="stroke: #038048; stroke-width: 1.0;"/><text fill="#000000" font-family="Noto Sans CJK JP" font-size="11" lengthAdjust="spacingAndGlyphs" textLength="59" x="91.1353" y="127.6157">符号化/復号</text><ellipse cx="82.1353" cy="140.2476" fill="none" rx="3" ry="3" style="stroke: #038048; stroke-width: 1.0;"/><text fill="#000000" font-family="Noto Sans CJK JP" font-size="11" lengthAdjust="spacingAndGlyphs" textLength="33" x="91.1353" y="143.5435">主観性</text><line style="stroke: #9090FF; stroke-width: 1.5;" x1="72.1353" x2="162.1353" y1="150.7115" y2="150.7115"/><!--class 情報--><rect fill="#FFFFFF" height="95.7836" id="情報" style="stroke: #9090FF; stroke-width: 1.5;" width="70" x="82.1353" y="194"/><ellipse cx="103.4353" cy="210" fill="#FFFFFF" rx="11" ry="11" style="stroke: #9090FF; stroke-width: 1.0;"/><path d="M103.4041,216.7031 C105.4041,216.7031 107.0447,215.4531 107.0447,213.2656 C107.0447,211.5469 106.1541,210.5156 105.0916,210.125 L105.0916,210.0625 C106.1384,209.5313 106.7634,208.6094 106.7634,207.1875 C106.7634,205.1563 105.4041,203.9844 103.3259,203.9844 C102.0603,203.9844 100.9666,204.5938 99.9978,205.5469 L101.3103,207.0625 C101.9353,206.3906 102.4666,205.9531 103.0916,205.9531 C103.9197,205.9531 104.4041,206.4844 104.4041,207.4219 C104.4041,208.5 103.7634,209.3125 102.0759,209.3125 L102.0759,211.0938 C104.0759,211.0938 104.6697,211.8438 104.6697,213.0625 C104.6697,214.1406 103.9666,214.6563 103.0759,214.6563 C102.2947,214.6563 101.5603,214.1719 100.9666,213.3906 L99.7166,214.9531 C100.4822,215.9531 101.6697,216.7031 103.4041,216.7031 Z "/><text fill="#000000" font-family="Noto Sans CJK JP" font-size="12" lengthAdjust="spacingAndGlyphs" textLength="24" x="118.8353" y="215.232">情報</text><line style="stroke: #9090FF; stroke-width: 1.5;" x1="83.1353" x2="151.1353" y1="226" y2="226"/><polygon fill="none" points="93.1353,234.4639,97.1353,238.4639,93.1353,242.4639,89.1353,238.4639" style="stroke: #B38D22; stroke-width: 1.0;"/><text fill="#000000" font-family="Noto Sans CJK JP" font-size="11" lengthAdjust="spacingAndGlyphs" textLength="44" x="102.1353" y="242.7599">生命情報</text><polygon fill="none" points="93.1353,250.3918,97.1353,254.3918,93.1353,258.3918,89.1353,254.3918" style="stroke: #B38D22; stroke-width: 1.0;"/><text fill="#000000" font-family="Noto Sans CJK JP" font-size="11" lengthAdjust="spacingAndGlyphs" textLength="44" x="102.1353" y="258.6878">社会情報</text><polygon fill="none" points="93.1353,266.3197,97.1353,270.3197,93.1353,274.3197,89.1353,270.3197" style="stroke: #B38D22; stroke-width: 1.0;"/><text fill="#000000" font-family="Noto Sans CJK JP" font-size="11" lengthAdjust="spacingAndGlyphs" textLength="44" x="102.1353" y="274.6157">機械情報</text><line style="stroke: #9090FF; stroke-width: 1.5;" x1="83.1353" x2="151.1353" y1="281.7836" y2="281.7836"/><!--class コミュニケーション--><rect fill="#FFFFFF" height="127.6394" id="コミュニケーション" style="stroke: #9090FF; stroke-width: 1.5;" width="140" x="228.6353" y="50"/><ellipse cx="243.6353" cy="66" fill="#FFFFFF" rx="11" ry="11" style="stroke: #9090FF; stroke-width: 1.0;"/><path d="M240.6666,67.5156 L242.0259,64.4375 C242.2603,63.7656 242.6041,62.8125 242.8384,62.0156 L242.9166,62.0156 C242.8541,62.875 242.8228,63.9375 242.8228,64.7031 L242.8228,67.5156 L240.6666,67.5156 Z M246.2291,67.5156 L245.1197,67.5156 L245.1197,60.1875 L241.8853,60.1875 L238.5572,67.7188 L238.5572,69.4375 L242.8228,69.4375 L242.8228,72.5 L245.1197,72.5 L245.1197,69.4375 L246.2291,69.4375 L246.2291,67.5156 Z "/><text fill="#000000" font-family="Noto Sans CJK JP" font-size="12" lengthAdjust="spacingAndGlyphs" textLength="108" x="257.6353" y="71.232">コミュニケーション</text><line style="stroke: #9090FF; stroke-width: 1.5;" x1="229.6353" x2="367.6353" y1="82" y2="82"/><ellipse cx="239.6353" cy="95.4639" fill="none" rx="3" ry="3" style="stroke: #038048; stroke-width: 1.0;"/><text fill="#000000" font-family="Noto Sans CJK JP" font-size="11" lengthAdjust="spacingAndGlyphs" textLength="94" x="248.6353" y="98.7599">Luhmannのモデル</text><polygon fill="none" points="239.6353,106.3918,243.6353,110.3918,239.6353,114.3918,235.6353,110.3918" style="stroke: #B38D22; stroke-width: 1.0;"/><text fill="#000000" font-family="Noto Sans CJK JP" font-size="11" lengthAdjust="spacingAndGlyphs" textLength="55" x="248.6353" y="114.6878">情報の選択</text><polygon fill="none" points="239.6353,122.3197,243.6353,126.3197,239.6353,130.3197,235.6353,126.3197" style="stroke: #B38D22; stroke-width: 1.0;"/><text fill="#000000" font-family="Noto Sans CJK JP" font-size="11" lengthAdjust="spacingAndGlyphs" textLength="55" x="248.6353" y="130.6157">表現の選択</text><polygon fill="none" points="239.6353,138.2476,243.6353,142.2476,239.6353,146.2476,235.6353,142.2476" style="stroke: #B38D22; stroke-width: 1.0;"/><text fill="#000000" font-family="Noto Sans CJK JP" font-size="11" lengthAdjust="spacingAndGlyphs" textLength="55" x="248.6353" y="146.5435">理解の選択</text><polygon fill="none" points="239.6353,154.1755,243.6353,158.1755,239.6353,162.1755,235.6353,158.1755" style="stroke: #B38D22; stroke-width: 1.0;"/><text fill="#000000" font-family="Noto Sans CJK JP" font-size="11" lengthAdjust="spacingAndGlyphs" textLength="88" x="248.6353" y="162.4714">理解の受容の選択</text><line style="stroke: #9090FF; stroke-width: 1.5;" x1="229.6353" x2="367.6353" y1="169.6394" y2="169.6394"/><!--class メディア--><rect fill="#FFFFFF" height="111.7115" id="メディア" style="stroke: #9090FF; stroke-width: 1.5;" width="136" x="230.6353" y="213"/><ellipse cx="270.8353" cy="229" fill="#FFFFFF" rx="11" ry="11" style="stroke: #9090FF; stroke-width: 1.0;"/><path d="M270.3197,235.7031 C272.2884,235.7031 273.9915,234.1875 273.9915,231.4688 C273.9915,228.8594 272.5072,227.6406 270.9759,227.6406 C270.5853,227.6406 270.2572,227.7344 269.929,227.8594 L270.1478,225.2969 L273.6165,225.2969 L273.6165,223.1875 L267.9915,223.1875 L267.6634,229.2031 L268.804,229.9375 C269.304,229.5625 269.5853,229.4063 270.054,229.4063 C270.8509,229.4063 271.4915,230.2031 271.4915,231.5156 C271.4915,232.9219 270.8509,233.6563 269.9759,233.6563 C269.1478,233.6563 268.4915,233.2031 267.9915,232.6406 L266.804,234.1875 C267.6322,235.0625 268.6947,235.7031 270.3197,235.7031 Z "/><text fill="#000000" font-family="Noto Sans CJK JP" font-size="12" lengthAdjust="spacingAndGlyphs" textLength="48" x="290.4353" y="234.232">メディア</text><line style="stroke: #9090FF; stroke-width: 1.5;" x1="231.6353" x2="365.6353" y1="245" y2="245"/><ellipse cx="241.6353" cy="258.4639" fill="none" rx="3" ry="3" style="stroke: #038048; stroke-width: 1.0;"/><text fill="#000000" font-family="Noto Sans CJK JP" font-size="11" lengthAdjust="spacingAndGlyphs" textLength="66" x="250.6353" y="261.7599">現実イメージ</text><ellipse cx="241.6353" cy="274.3918" fill="none" rx="3" ry="3" style="stroke: #038048; stroke-width: 1.0;"/><text fill="#000000" font-family="Noto Sans CJK JP" font-size="11" lengthAdjust="spacingAndGlyphs" textLength="110" x="250.6353" y="277.6878">メディア・リテラシー</text><polygon fill="none" points="241.6353,285.3197,245.6353,289.3197,241.6353,293.3197,237.6353,289.3197" style="stroke: #B38D22; stroke-width: 1.0;"/><text fill="#000000" font-family="Noto Sans CJK JP" font-size="11" lengthAdjust="spacingAndGlyphs" textLength="66" x="250.6353" y="293.6157">伝播メディア</text><polygon fill="none" points="241.6353,301.2476,245.6353,305.2476,241.6353,309.2476,237.6353,305.2476" style="stroke: #B38D22; stroke-width: 1.0;"/><text fill="#000000" font-family="Noto Sans CJK JP" font-size="11" lengthAdjust="spacingAndGlyphs" textLength="66" x="250.6353" y="309.5435">成果メディア</text><line style="stroke: #9090FF; stroke-width: 1.5;" x1="231.6353" x2="365.6353" y1="316.7115" y2="316.7115"/><!--class 問題--><rect fill="#FFFFFF" height="95.7836" id="問題" style="stroke: #9090FF; stroke-width: 1.5;" width="70" x="82.1353" y="547"/><ellipse cx="103.4353" cy="563" fill="#FFFFFF" rx="11" ry="11" style="stroke: #9090FF; stroke-width: 1.0;"/><path d="M102.8572,567.7969 C102.1697,567.7969 101.5916,566.9688 101.4666,564.6563 C101.9041,563.9063 102.4197,563.6563 102.8572,563.6563 C103.4666,563.6563 103.9041,564.2656 103.9041,565.6563 C103.9041,567.1094 103.4978,567.7969 102.8572,567.7969 Z M106.1384,558.4063 C105.5447,557.6406 104.5759,556.9844 103.3259,556.9844 C101.0134,556.9844 99.1228,558.9844 99.1228,563.6719 C99.1228,567.7656 100.9509,569.7031 102.9197,569.7031 C104.7009,569.7031 106.2322,568.1719 106.2322,565.6563 C106.2322,563.0781 104.9666,561.8438 103.4353,561.8438 C102.6541,561.8438 101.9822,562.2344 101.4666,562.9063 C101.5916,560 102.4666,559.0313 103.3728,559.0313 C103.9041,559.0313 104.4666,559.4063 104.7947,559.8906 L106.1384,558.4063 Z "/><text fill="#000000" font-family="Noto Sans CJK JP" font-size="12" lengthAdjust="spacingAndGlyphs" textLength="24" x="118.8353" y="568.232">問題</text><line style="stroke: #9090FF; stroke-width: 1.5;" x1="83.1353" x2="151.1353" y1="579" y2="579"/><ellipse cx="93.1353" cy="592.4639" fill="none" rx="3" ry="3" style="stroke: #038048; stroke-width: 1.0;"/><text fill="#000000" font-family="Noto Sans CJK JP" font-size="11" lengthAdjust="spacingAndGlyphs" textLength="33" x="102.1353" y="595.7599">複雑性</text><ellipse cx="93.1353" cy="608.3918" fill="none" rx="3" ry="3" style="stroke: #038048; stroke-width: 1.0;"/><text fill="#000000" font-family="Noto Sans CJK JP" font-size="11" lengthAdjust="spacingAndGlyphs" textLength="22" x="102.1353" y="611.6878">問題</text><ellipse cx="93.1353" cy="624.3197" fill="none" rx="3" ry="3" style="stroke: #038048; stroke-width: 1.0;"/><text fill="#000000" font-family="Noto Sans CJK JP" font-size="11" lengthAdjust="spacingAndGlyphs" textLength="44" x="102.1353" y="627.6157">問題解決</text><line style="stroke: #9090FF; stroke-width: 1.5;" x1="83.1353" x2="151.1353" y1="634.7836" y2="634.7836"/><!--class 還元--><rect fill="#FFFFFF" height="111.7115" id="還元" style="stroke: #9090FF; stroke-width: 1.5;" width="70" x="263.6353" y="583"/><ellipse cx="284.9353" cy="599" fill="#FFFFFF" rx="11" ry="11" style="stroke: #9090FF; stroke-width: 1.0;"/><path d="M282.8884,605.75 L285.4978,605.75 C285.5134,601.125 286.1072,598.3438 288.1541,594.9688 L288.1541,593.4375 L281.2322,593.4375 L281.2322,595.5156 L285.5447,595.5156 C283.7947,598.8125 283.1384,601.25 282.8884,605.75 Z "/><text fill="#000000" font-family="Noto Sans CJK JP" font-size="12" lengthAdjust="spacingAndGlyphs" textLength="24" x="300.3353" y="604.232">還元</text><line style="stroke: #9090FF; stroke-width: 1.5;" x1="264.6353" x2="332.6353" y1="615" y2="615"/><ellipse cx="274.6353" cy="628.4639" fill="none" rx="3" ry="3" style="stroke: #038048; stroke-width: 1.0;"/><text fill="#000000" font-family="Noto Sans CJK JP" font-size="11" lengthAdjust="spacingAndGlyphs" textLength="44" x="283.6353" y="631.7599">還元主義</text><ellipse cx="274.6353" cy="644.3918" fill="none" rx="3" ry="3" style="stroke: #038048; stroke-width: 1.0;"/><text fill="#000000" font-family="Noto Sans CJK JP" font-size="11" lengthAdjust="spacingAndGlyphs" textLength="22" x="283.6353" y="647.6878">集合</text><ellipse cx="274.6353" cy="660.3197" fill="none" rx="3" ry="3" style="stroke: #038048; stroke-width: 1.0;"/><text fill="#000000" font-family="Noto Sans CJK JP" font-size="11" lengthAdjust="spacingAndGlyphs" textLength="28" x="283.6353" y="663.6157">MECE</text><ellipse cx="274.6353" cy="676.2476" fill="none" rx="3" ry="3" style="stroke: #038048; stroke-width: 1.0;"/><text fill="#000000" font-family="Noto Sans CJK JP" font-size="11" lengthAdjust="spacingAndGlyphs" textLength="33" x="283.6353" y="679.5435">モデル</text><line style="stroke: #9090FF; stroke-width: 1.5;" x1="264.6353" x2="332.6353" y1="686.7115" y2="686.7115"/><!--class システム--><rect fill="#FFFFFF" height="175.423" id="システム" style="stroke: #9090FF; stroke-width: 1.5;" width="125" x="236.1353" y="372.5"/><ellipse cx="271.3853" cy="388.5" fill="#FFFFFF" rx="11" ry="11" style="stroke: #9090FF; stroke-width: 1.0;"/><path d="M271.6353,395.2031 C273.9478,395.2031 275.2603,393.7813 275.2603,391.9375 C275.2603,390.3438 274.4009,389.375 273.4322,388.6563 L273.4322,388.5938 C274.1978,387.9219 274.8541,386.9531 274.8541,385.6563 C274.8541,383.7969 273.5884,382.4844 271.6822,382.4844 C269.6822,382.4844 268.2916,383.75 268.2916,385.6719 C268.2916,386.9375 268.9478,388 269.7291,388.6875 L269.7291,388.7656 C268.7759,389.5156 268.0103,390.3438 268.0103,391.9688 C268.0103,393.8438 269.4322,395.2031 271.6353,395.2031 Z M272.0103,387.8281 C271.1666,387.3281 270.5572,386.625 270.5572,385.6563 C270.5572,384.7344 271.0103,384.2344 271.6353,384.2344 C272.3384,384.2344 272.7603,384.9063 272.7603,385.7813 C272.7603,386.5469 272.4947,387.2188 272.0103,387.8281 Z M271.6509,393.4688 C270.8228,393.4688 270.2447,392.8438 270.2447,391.8594 C270.2447,390.8906 270.6197,390.1875 271.0884,389.6406 C272.1978,390.3594 272.8228,390.9531 272.8228,392.0781 C272.8228,392.9375 272.4322,393.4688 271.6509,393.4688 Z "/><text fill="#000000" font-family="Noto Sans CJK JP" font-size="12" lengthAdjust="spacingAndGlyphs" textLength="48" x="289.8853" y="393.732">システム</text><line style="stroke: #9090FF; stroke-width: 1.5;" x1="237.1353" x2="360.1353" y1="404.5" y2="404.5"/><ellipse cx="247.1353" cy="417.9639" fill="none" rx="3" ry="3" style="stroke: #038048; stroke-width: 1.0;"/><text fill="#000000" font-family="Noto Sans CJK JP" font-size="11" lengthAdjust="spacingAndGlyphs" textLength="44" x="256.1353" y="421.2599">構造主義</text><ellipse cx="247.1353" cy="433.8918" fill="none" rx="3" ry="3" style="stroke: #038048; stroke-width: 1.0;"/><text fill="#000000" font-family="Noto Sans CJK JP" font-size="11" lengthAdjust="spacingAndGlyphs" textLength="22" x="256.1353" y="437.1878">構造</text><ellipse cx="247.1353" cy="449.8197" fill="none" rx="3" ry="3" style="stroke: #038048; stroke-width: 1.0;"/><text fill="#000000" font-family="Noto Sans CJK JP" font-size="11" lengthAdjust="spacingAndGlyphs" textLength="22" x="256.1353" y="453.1157">状態</text><ellipse cx="247.1353" cy="465.7476" fill="none" rx="3" ry="3" style="stroke: #038048; stroke-width: 1.0;"/><text fill="#000000" font-family="Noto Sans CJK JP" font-size="11" lengthAdjust="spacingAndGlyphs" textLength="99" x="256.1353" y="469.0435">オートポイエーシス</text><ellipse cx="247.1353" cy="481.6755" fill="none" rx="3" ry="3" style="stroke: #038048; stroke-width: 1.0;"/><text fill="#000000" font-family="Noto Sans CJK JP" font-size="11" lengthAdjust="spacingAndGlyphs" textLength="55" x="256.1353" y="484.9714">機能的分化</text><ellipse cx="247.1353" cy="497.6033" fill="none" rx="3" ry="3" style="stroke: #038048; stroke-width: 1.0;"/><text fill="#000000" font-family="Noto Sans CJK JP" font-size="11" lengthAdjust="spacingAndGlyphs" textLength="55" x="256.1353" y="500.8993">準分解可能</text><polygon fill="none" points="247.1353,508.5312,251.1353,512.5312,247.1353,516.5312,243.1353,512.5312" style="stroke: #B38D22; stroke-width: 1.0;"/><text fill="#000000" font-family="Noto Sans CJK JP" font-size="11" lengthAdjust="spacingAndGlyphs" textLength="66" x="256.1353" y="516.8272">心理システム</text><polygon fill="none" points="247.1353,524.4591,251.1353,528.4591,247.1353,532.4591,243.1353,528.4591" style="stroke: #B38D22; stroke-width: 1.0;"/><text fill="#000000" font-family="Noto Sans CJK JP" font-size="11" lengthAdjust="spacingAndGlyphs" textLength="66" x="256.1353" y="532.7551">社会システム</text><line style="stroke: #9090FF; stroke-width: 1.5;" x1="237.1353" x2="360.1353" y1="539.923" y2="539.923"/><!--class 創発--><rect fill="#FFFFFF" height="127.6394" id="創発" style="stroke: #9090FF; stroke-width: 1.5;" width="103" x="65.6353" y="384"/><ellipse cx="101.7853" cy="400" fill="#FFFFFF" rx="11" ry="11" style="stroke: #9090FF; stroke-width: 1.0;"/><path d="M101.8634,400.0469 C101.2541,400.0469 100.8166,399.4063 100.8166,398.0313 C100.8166,396.5938 101.2228,395.8906 101.8634,395.8906 C102.5509,395.8906 103.1291,396.7188 103.2541,399.0313 C102.8166,399.7813 102.3009,400.0469 101.8634,400.0469 Z M98.5822,405.2969 C99.1759,406.0625 100.1447,406.7031 101.3947,406.7031 C103.7072,406.7031 105.5978,404.7188 105.5978,400 C105.5978,395.9063 103.7697,393.9844 101.8009,393.9844 C100.0197,393.9844 98.4884,395.5156 98.4884,398.0313 C98.4884,400.625 99.7541,401.8438 101.2853,401.8438 C102.0666,401.8438 102.7384,401.4531 103.2541,400.7813 C103.1291,403.6875 102.2541,404.6563 101.3478,404.6563 C100.8166,404.6563 100.2541,404.2969 99.9259,403.7813 L98.5822,405.2969 Z "/><text fill="#000000" font-family="Noto Sans CJK JP" font-size="12" lengthAdjust="spacingAndGlyphs" textLength="24" x="120.4853" y="405.232">創発</text><line style="stroke: #9090FF; stroke-width: 1.5;" x1="66.6353" x2="167.6353" y1="416" y2="416"/><ellipse cx="76.6353" cy="429.4639" fill="none" rx="3" ry="3" style="stroke: #038048; stroke-width: 1.0;"/><text fill="#000000" font-family="Noto Sans CJK JP" font-size="11" lengthAdjust="spacingAndGlyphs" textLength="44" x="85.6353" y="432.7599">創発主義</text><ellipse cx="76.6353" cy="445.3918" fill="none" rx="3" ry="3" style="stroke: #038048; stroke-width: 1.0;"/><text fill="#000000" font-family="Noto Sans CJK JP" font-size="11" lengthAdjust="spacingAndGlyphs" textLength="44" x="85.6353" y="448.6878">アイデア</text><ellipse cx="76.6353" cy="461.3197" fill="none" rx="3" ry="3" style="stroke: #038048; stroke-width: 1.0;"/><text fill="#000000" font-family="Noto Sans CJK JP" font-size="11" lengthAdjust="spacingAndGlyphs" textLength="77" x="85.6353" y="464.6157">イノベーション</text><polygon fill="none" points="76.6353,472.2476,80.6353,476.2476,76.6353,480.2476,72.6353,476.2476" style="stroke: #B38D22; stroke-width: 1.0;"/><text fill="#000000" font-family="Noto Sans CJK JP" font-size="11" lengthAdjust="spacingAndGlyphs" textLength="55" x="85.6353" y="480.5435">思考の発散</text><polygon fill="none" points="76.6353,488.1755,80.6353,492.1755,76.6353,496.1755,72.6353,492.1755" style="stroke: #B38D22; stroke-width: 1.0;"/><text fill="#000000" font-family="Noto Sans CJK JP" font-size="11" lengthAdjust="spacingAndGlyphs" textLength="55" x="85.6353" y="496.4714">思考の収束</text><line style="stroke: #9090FF; stroke-width: 1.5;" x1="66.6353" x2="167.6353" y1="503.6394" y2="503.6394"/><!--class 介入--><rect fill="#FFFFFF" height="111.7115" id="介入" style="stroke: #9090FF; stroke-width: 1.5;" width="103" x="428.6353" y="404"/><ellipse cx="464.7853" cy="420" fill="#FFFFFF" rx="11" ry="11" style="stroke: #9090FF; stroke-width: 1.0;"/><path d="M463.3322,424.9531 C464.2697,424.9531 465.0665,424.5156 465.7072,423.6563 L465.7697,423.6563 L465.9728,424.75 L467.9884,424.75 L467.9884,418.9219 C467.9884,416.3125 466.6759,414.9844 464.7228,414.9844 C463.504,414.9844 462.3634,415.4219 461.1915,416.1094 L462.0978,417.7656 C463.0197,417.2344 463.5822,416.9688 464.2228,416.9688 C464.9728,416.9688 465.4884,417.625 465.504,418.6406 C462.629,419.0938 460.9259,420.1719 460.9259,422.2813 C460.9259,423.9219 461.8322,424.9531 463.3322,424.9531 Z M464.1759,423.0313 C463.7072,423.0313 463.3322,422.7656 463.3322,422.0156 C463.3322,421.0625 463.8478,420.5 465.504,420.1563 L465.504,422.1719 C465.1603,422.6563 464.6759,423.0313 464.1759,423.0313 Z "/><text fill="#000000" font-family="Noto Sans CJK JP" font-size="12" lengthAdjust="spacingAndGlyphs" textLength="24" x="483.4853" y="425.232">介入</text><line style="stroke: #9090FF; stroke-width: 1.5;" x1="429.6353" x2="530.6353" y1="436" y2="436"/><ellipse cx="439.6353" cy="449.4639" fill="none" rx="3" ry="3" style="stroke: #038048; stroke-width: 1.0;"/><text fill="#000000" font-family="Noto Sans CJK JP" font-size="11" lengthAdjust="spacingAndGlyphs" textLength="22" x="448.6353" y="452.7599">意図</text><ellipse cx="439.6353" cy="465.3918" fill="none" rx="3" ry="3" style="stroke: #038048; stroke-width: 1.0;"/><text fill="#000000" font-family="Noto Sans CJK JP" font-size="11" lengthAdjust="spacingAndGlyphs" textLength="77" x="448.6353" y="468.6878">アフォーダンス</text><polygon fill="none" points="439.6353,476.3197,443.6353,480.3197,439.6353,484.3197,435.6353,480.3197" style="stroke: #B38D22; stroke-width: 1.0;"/><text fill="#000000" font-family="Noto Sans CJK JP" font-size="11" lengthAdjust="spacingAndGlyphs" textLength="66" x="448.6353" y="484.6157">明示的な介入</text><polygon fill="none" points="439.6353,492.2476,443.6353,496.2476,439.6353,500.2476,435.6353,496.2476" style="stroke: #B38D22; stroke-width: 1.0;"/><text fill="#000000" font-family="Noto Sans CJK JP" font-size="11" lengthAdjust="spacingAndGlyphs" textLength="66" x="448.6353" y="500.5435">暗示的な介入</text><line style="stroke: #9090FF; stroke-width: 1.5;" x1="429.6353" x2="530.6353" y1="507.7115" y2="507.7115"/><!--class 論理--><rect fill="#FFFFFF" height="143.5673" id="論理" style="stroke: #9090FF; stroke-width: 1.5;" width="103" x="428.6353" y="551"/><ellipse cx="464.7853" cy="567" fill="#FFFFFF" rx="11" ry="11" style="stroke: #9090FF; stroke-width: 1.0;"/><path d="M466.1759,573.7344 C467.7697,573.7344 469.2384,572.125 469.2384,568.5625 C469.2384,565.3906 468.129,563.7344 466.3478,563.7344 C465.7072,563.7344 465.0978,564.0938 464.5822,564.7344 L464.629,563.2031 L464.629,560.375 L462.1447,560.375 L462.1447,573.5 L464.1134,573.5 L464.3009,572.5313 L464.379,572.5313 C464.8947,573.3438 465.4572,573.7344 466.1759,573.7344 Z M465.504,571.6875 C465.2072,571.6875 464.9103,571.5313 464.629,570.9688 L464.629,566.6094 C464.9572,566.0313 465.2853,565.7656 465.6447,565.7656 C466.2853,565.7656 466.6603,566.6719 466.6603,568.625 C466.6603,570.8281 466.0978,571.6875 465.504,571.6875 Z "/><text fill="#000000" font-family="Noto Sans CJK JP" font-size="12" lengthAdjust="spacingAndGlyphs" textLength="24" x="483.4853" y="572.232">論理</text><line style="stroke: #9090FF; stroke-width: 1.5;" x1="429.6353" x2="530.6353" y1="583" y2="583"/><ellipse cx="439.6353" cy="596.4639" fill="none" rx="3" ry="3" style="stroke: #038048; stroke-width: 1.0;"/><text fill="#000000" font-family="Noto Sans CJK JP" font-size="11" lengthAdjust="spacingAndGlyphs" textLength="22" x="448.6353" y="599.7599">定義</text><ellipse cx="439.6353" cy="612.3918" fill="none" rx="3" ry="3" style="stroke: #038048; stroke-width: 1.0;"/><text fill="#000000" font-family="Noto Sans CJK JP" font-size="11" lengthAdjust="spacingAndGlyphs" textLength="48" x="448.6353" y="615.6878">命題/定理</text><ellipse cx="439.6353" cy="628.3197" fill="none" rx="3" ry="3" style="stroke: #038048; stroke-width: 1.0;"/><text fill="#000000" font-family="Noto Sans CJK JP" font-size="11" lengthAdjust="spacingAndGlyphs" textLength="22" x="448.6353" y="631.6157">推論</text><polygon fill="none" points="439.6353,639.2476,443.6353,643.2476,439.6353,647.2476,435.6353,643.2476" style="stroke: #B38D22; stroke-width: 1.0;"/><text fill="#000000" font-family="Noto Sans CJK JP" font-size="11" lengthAdjust="spacingAndGlyphs" textLength="22" x="448.6353" y="647.5435">演繹</text><polygon fill="none" points="439.6353,655.1755,443.6353,659.1755,439.6353,663.1755,435.6353,659.1755" style="stroke: #B38D22; stroke-width: 1.0;"/><text fill="#000000" font-family="Noto Sans CJK JP" font-size="11" lengthAdjust="spacingAndGlyphs" textLength="22" x="448.6353" y="663.4714">帰納</text><polygon fill="none" points="439.6353,671.1033,443.6353,675.1033,439.6353,679.1033,435.6353,675.1033" style="stroke: #B38D22; stroke-width: 1.0;"/><text fill="#000000" font-family="Noto Sans CJK JP" font-size="11" lengthAdjust="spacingAndGlyphs" textLength="77" x="448.6353" y="679.3993">アブダクション</text><line style="stroke: #9090FF; stroke-width: 1.5;" x1="429.6353" x2="530.6353" y1="686.5673" y2="686.5673"/><!--link 情報 to 記号と意味--><path d="M117.1353,193.9473 C117.1353,182.342 117.1353,170.7368 117.1353,159.1315 " fill="none" id="情報-記号と意味" style="stroke: #FF9090; stroke-width: 3.0;"/><!--link 情報 to コミュニケーション--><path d="M152.5611,217.0165 C174.1224,201.8107 202.4212,181.8535 228.3642,163.5575 " fill="none" id="情報-コミュニケーション" style="stroke: #FF9090; stroke-width: 3.0;"/><!--link 情報 to メディア--><path d="M152.5611,247.27 C174.7413,250.5695 204.0515,254.9297 230.5925,258.8779 " fill="none" id="情報-メディア" style="stroke: #FF9090; stroke-width: 3.0;"/><!--link メディア to コミュニケーション--><path d="M298.6353,212.9941 C298.6353,201.3933 298.6353,189.7924 298.6353,178.1915 " fill="none" id="メディア-コミュニケーション" style="stroke: #FF9090; stroke-width: 3.0;"/><!--link 問題 to 還元--><path d="M152.5611,603.5881 C184.6451,611.366 231.6477,622.7606 263.6075,630.5084 " fill="none" id="問題-還元" style="stroke: #FF9090; stroke-width: 3.0;"/><!--link 問題 to システム--><path d="M152.5611,568.6502 C176.2888,551.0015 208.176,527.2837 236.1038,506.511 " fill="none" id="問題-システム" style="stroke: #FF9090; stroke-width: 3.0;"/><!--link 問題 to 創発--><path d="M117.1353,546.7656 C117.1353,535.1915 117.1353,523.6174 117.1353,512.0433 " fill="none" id="問題-創発" style="stroke: #FF9090; stroke-width: 3.0;"/><!--link 創発 to システム--><path d="M168.6604,451.4066 C189.6211,452.7925 214.0388,454.4068 236.0144,455.8598 " fill="none" id="創発-システム" style="stroke: #FF9090; stroke-width: 3.0;"/><!--link 還元 to システム--><path d="M298.6353,582.7129 C298.6353,571.0488 298.6353,559.3847 298.6353,547.7205 " fill="none" id="還元-システム" style="stroke: #FF9090; stroke-width: 3.0;"/><!--link 創発 to 情報--><path d="M117.1353,383.9495 C117.1353,353.7136 117.1353,318.2263 117.1353,290.2978 " fill="none" id="創発-情報" style="stroke: #FF9090; stroke-width: 3.0;"/><!--link メディア to システム--><path d="M259.736,325.1071 C253.3614,340.8494 250.808,356.5917 252.0757,372.334 " fill="none" id="メディア-システム" style="stroke: #FF9090; stroke-width: 3.0;"/><!--link 論理 to 介入--><path d="M480.1353,550.7324 C480.1353,539.2727 480.1353,527.813 480.1353,516.3533 " fill="none" id="論理-介入" style="stroke: #FF9090; stroke-width: 3.0;"/><!--link コミュニケーション to 介入--><path d="M364.4234,178.0057 C368.8166,183.5501 372.9512,189.2453 376.6353,195 C419.1765,261.4522 448.9277,348.1613 465.2857,403.969 " fill="none" id="コミュニケーション-介入" style="stroke: #FF9090; stroke-width: 3.0;"/><!--link システム to 介入--><path d="M361.3514,460 C383.2788,460 407.6275,460 428.5429,460 " fill="none" id="システム-介入" style="stroke: #FF9090; stroke-width: 3.0;"/><!--link I to II--><!--link II to III--><!--
@startuml package
left to right direction

skinparam Shadowing false
skinparam PackageBorderColor #909090
skinparam ClassBorderColor #9090ff
skinparam ClassBackgroundColor transparent
skinparam ArrowColor #ff9090
skinparam ArrowThickness 3
skinparam DefaultFontName "Noto Sans CJK JP"

package I:情報/コミュニケーション/メディア as I {
	class 記号と意味 <<(2,white)>> {
		+記号
		+意味
		+符号化/復号
		+主観性
	}
	class 情報 <<(3,white)>> {
		#生命情報
		#社会情報
		#機械情報
	}
	class コミュニケーション <<(4,white)>> {
		+Luhmannのモデル
		#情報の選択
		#表現の選択
		#理解の選択
		#理解の受容の選択
	}
	class メディア <<(5,white)>> {
		+現実イメージ
		+メディア・リテラシー
		#伝播メディア
		#成果メディア
	}

	記号と意味-left-情報
	情報-コミュニケーション
	情報-down-メディア
	コミュニケーション-left-メディア
}

package II:問題解決 as II {
	class 問題 <<(6,white)>> {
		+複雑性
		+問題
		+問題解決
	}
	class 還元 <<(7,white)>> {
		+還元主義
		+集合
		+MECE
		+モデル
	}
	class システム <<(8,white)>> {
		+構造主義
		+構造
		+状態
		+オートポイエーシス
		+機能的分化
		+準分解可能
		#心理システム
		#社会システム
	}
	class 創発 <<(9,white)>> {
		+創発主義
		+アイデア
		+イノベーション
		#思考の発散
		#思考の収束
	}
	問題-right-還元
	問題-right-システム
	問題-right-創発
	創発-down-システム
	システム-left-還元
	情報-left-創発
	メディア-システム
}

package III:応用 as III {
	class 介入 <<(a,white)>> {
		+意図
		+アフォーダンス
		#明示的な介入
		#暗示的な介入
	}
	class 論理 <<(b,white)>> {
		+定義
		+命題/定理
		+推論
		#演繹
		#帰納
		#アブダクション
	}
	介入-left-論理
	コミュニケーション-down-介入
	システム-down-介入
}
I-left[hidden]-II
II-down[hidden]-III
@enduml

PlantUML version 1.2019.06(Sat May 25 02:10:25 JST 2019)
(GPL source distribution)
Java Runtime: OpenJDK Runtime Environment
JVM: OpenJDK 64-Bit Server VM
Java Version: 1.8.0_212-b04
Operating System: Linux
OS Version: 5.1.20-300.fc30.x86_64
Default Encoding: UTF-8
Language: ja
Country: JP
--></g></svg>