<?xml version="1.0" encoding="UTF-8" standalone="no"?><svg xmlns="http://www.w3.org/2000/svg" xmlns:xlink="http://www.w3.org/1999/xlink" contentScriptType="application/ecmascript" contentStyleType="text/css" height="935px" preserveAspectRatio="none" style="width:710px;height:935px;" version="1.1" viewBox="0 0 710 935" width="710px" zoomAndPan="magnify"><defs/><g><!--MD5=[517f062989df7f7a9c732ce4e07c7d03]
cluster I--><polygon fill="#FFFFFF" points="92.75,32,328.75,32,335.75,58.2719,477.25,58.2719,477.25,422,92.75,422,92.75,32" style="stroke: #909090; stroke-width: 1.5;"/><line style="stroke: #909090; stroke-width: 1.5;" x1="92.75" x2="335.75" y1="58.2719" y2="58.2719"/><text fill="#000000" font-family="Noto Sans CJK JP" font-size="14" font-weight="bold" lengthAdjust="spacingAndGlyphs" textLength="230" x="96.75" y="50.2399">I:情報/コミュニケーション/メディア</text><!--MD5=[ff9d1a578d2a3b047675d9ffe1b7dca1]
cluster II--><polygon fill="#FFFFFF" points="81.25,462,158.25,462,165.25,488.2719,470.25,488.2719,470.25,912,81.25,912,81.25,462" style="stroke: #909090; stroke-width: 1.5;"/><line style="stroke: #909090; stroke-width: 1.5;" x1="81.25" x2="165.25" y1="488.2719" y2="488.2719"/><text fill="#000000" font-family="Noto Sans CJK JP" font-size="14" font-weight="bold" lengthAdjust="spacingAndGlyphs" textLength="71" x="85.25" y="480.2399">II:問題解決</text><!--MD5=[33c1b505bbc44cfaf82bdfaf95f9c2af]
cluster III--><polygon fill="#FFFFFF" points="517.25,502,571.25,502,578.25,528.2719,688.25,528.2719,688.25,923,517.25,923,517.25,502" style="stroke: #909090; stroke-width: 1.5;"/><line style="stroke: #909090; stroke-width: 1.5;" x1="517.25" x2="578.25" y1="528.2719" y2="528.2719"/><text fill="#000000" font-family="Noto Sans CJK JP" font-size="14" font-weight="bold" lengthAdjust="spacingAndGlyphs" textLength="48" x="521.25" y="520.2399">III:応用</text><!--MD5=[cba03a6c90e299243c2d59100b77d8e4]
class 表現と内容--><rect fill="#FFFFFF" height="127.3596" id="表現と内容" style="stroke: #9090FF; stroke-width: 1.5;" width="100" x="116.75" y="109.5"/><rect fill="#DDDDFF" height="30.2719" style="stroke: #9090FF; stroke-width: 1.5;" width="100" x="116.75" y="109.5"/><ellipse cx="130.75" cy="124.636" fill="#FFFFFF" rx="10" ry="10" style="stroke: #9090FF; stroke-width: 1.0;"/><path d="M127.7656,129.886 L133.7344,129.886 L133.7344,128.1828 L132.0156,128.1828 C131.5156,128.1828 131.0625,128.2141 130.5156,128.2766 C132.0469,126.2922 133.3438,124.4016 133.3438,122.6203 C133.3438,120.7766 132.2188,119.5578 130.5625,119.5578 C129.3438,119.5578 128.5156,120.0891 127.6563,121.0266 L128.8125,122.1672 C129.2188,121.636 129.7188,121.1985 130.2969,121.1985 C130.9844,121.1985 131.3594,121.761 131.3594,122.7297 C131.3594,124.4797 129.9375,126.2766 127.7656,128.7141 L127.7656,129.886 Z "/><text fill="#000000" font-family="Noto Sans CJK JP" font-size="14" lengthAdjust="spacingAndGlyphs" textLength="70" x="143.75" y="130.7399">表現と内容</text><line style="stroke: #9090FF; stroke-width: 1.5;" x1="117.75" x2="215.75" y1="139.7719" y2="139.7719"/><ellipse cx="127.75" cy="150.7719" fill="none" rx="3" ry="3" style="stroke: #038048; stroke-width: 1.0;"/><text fill="#000000" font-family="Noto Sans CJK JP" font-size="14" lengthAdjust="spacingAndGlyphs" textLength="28" x="135.75" y="160.0118">表現</text><ellipse cx="127.75" cy="171.0438" fill="none" rx="3" ry="3" style="stroke: #038048; stroke-width: 1.0;"/><text fill="#000000" font-family="Noto Sans CJK JP" font-size="14" lengthAdjust="spacingAndGlyphs" textLength="28" x="135.75" y="180.2838">内容</text><ellipse cx="127.75" cy="191.3157" fill="none" rx="3" ry="3" style="stroke: #038048; stroke-width: 1.0;"/><text fill="#000000" font-family="Noto Sans CJK JP" font-size="14" lengthAdjust="spacingAndGlyphs" textLength="75" x="135.75" y="200.5557">符号化/復号</text><ellipse cx="127.75" cy="211.5876" fill="none" rx="3" ry="3" style="stroke: #038048; stroke-width: 1.0;"/><text fill="#000000" font-family="Noto Sans CJK JP" font-size="14" lengthAdjust="spacingAndGlyphs" textLength="42" x="135.75" y="220.8276">主観性</text><line style="stroke: #9090FF; stroke-width: 1.5;" x1="117.75" x2="215.75" y1="228.8596" y2="228.8596"/><!--MD5=[436284083758d50ee3f70333de38ab1c]
class 情報--><rect fill="#FFFFFF" height="107.0876" id="情報" style="stroke: #9090FF; stroke-width: 1.5;" width="81" x="126.25" y="271.5"/><rect fill="#DDDDFF" height="30.2719" style="stroke: #9090FF; stroke-width: 1.5;" width="81" x="126.25" y="271.5"/><ellipse cx="150.6" cy="286.636" fill="#FFFFFF" rx="10" ry="10" style="stroke: #9090FF; stroke-width: 1.0;"/><path d="M150.8656,292.3078 C152.5063,292.3078 153.8656,291.261 153.8656,289.4797 C153.8656,288.0578 153.1313,287.2141 152.2563,286.886 L152.2563,286.8235 C153.1156,286.4016 153.6313,285.636 153.6313,284.4641 C153.6313,282.7922 152.5063,281.8391 150.8031,281.8391 C149.7563,281.8391 148.8656,282.3391 148.0688,283.1203 L149.1469,284.3703 C149.6625,283.8078 150.0844,283.4485 150.6156,283.4485 C151.3031,283.4485 151.6938,283.886 151.6938,284.6672 C151.6938,285.5422 151.1625,286.2141 149.7719,286.2141 L149.7719,287.6828 C151.4281,287.6828 151.9125,288.2922 151.9125,289.3078 C151.9125,290.1828 151.3344,290.6203 150.6,290.6203 C149.9594,290.6203 149.35,290.2141 148.8656,289.5735 L147.8344,290.8547 C148.475,291.6828 149.4281,292.3078 150.8656,292.3078 Z "/><text fill="#000000" font-family="Noto Sans CJK JP" font-size="14" lengthAdjust="spacingAndGlyphs" textLength="28" x="165.9" y="292.7399">情報</text><line style="stroke: #9090FF; stroke-width: 1.5;" x1="127.25" x2="206.25" y1="301.7719" y2="301.7719"/><polygon fill="none" points="137.25,307.7719,141.25,311.7719,137.25,315.7719,133.25,311.7719" style="stroke: #B38D22; stroke-width: 1.0;"/><text fill="#000000" font-family="Noto Sans CJK JP" font-size="14" lengthAdjust="spacingAndGlyphs" textLength="56" x="145.25" y="322.0118">生命情報</text><polygon fill="none" points="137.25,328.0438,141.25,332.0438,137.25,336.0438,133.25,332.0438" style="stroke: #B38D22; stroke-width: 1.0;"/><text fill="#000000" font-family="Noto Sans CJK JP" font-size="14" lengthAdjust="spacingAndGlyphs" textLength="56" x="145.25" y="342.2838">社会情報</text><polygon fill="none" points="137.25,348.3157,141.25,352.3157,137.25,356.3157,133.25,352.3157" style="stroke: #B38D22; stroke-width: 1.0;"/><text fill="#000000" font-family="Noto Sans CJK JP" font-size="14" lengthAdjust="spacingAndGlyphs" textLength="56" x="145.25" y="362.5557">機械情報</text><line style="stroke: #9090FF; stroke-width: 1.5;" x1="127.25" x2="206.25" y1="370.5876" y2="370.5876"/><!--MD5=[3b741d2bbbdbd55183a54575f327c638]
class コミュニケーション--><rect fill="#FFFFFF" height="147.6315" id="コミュニケーション" style="stroke: #9090FF; stroke-width: 1.5;" width="156" x="292.75" y="79"/><rect fill="#DDDDFF" height="30.2719" style="stroke: #9090FF; stroke-width: 1.5;" width="156" x="292.75" y="79"/><ellipse cx="306.75" cy="94.136" fill="#FFFFFF" rx="10" ry="10" style="stroke: #9090FF; stroke-width: 1.0;"/><path d="M304.3438,95.5266 L305.4531,92.9953 C305.6563,92.4328 305.9375,91.6516 306.125,90.9953 L306.1875,90.9953 C306.1406,91.7141 306.1094,92.5735 306.1094,93.2141 L306.1094,95.5266 L304.3438,95.5266 Z M308.9063,95.5266 L308,95.5266 L308,89.4953 L305.3438,89.4953 L302.5938,95.6985 L302.5938,97.1203 L306.1094,97.1203 L306.1094,99.636 L308,99.636 L308,97.1203 L308.9063,97.1203 L308.9063,95.5266 Z "/><text fill="#000000" font-family="Noto Sans CJK JP" font-size="14" lengthAdjust="spacingAndGlyphs" textLength="126" x="319.75" y="100.2399">コミュニケーション</text><line style="stroke: #9090FF; stroke-width: 1.5;" x1="293.75" x2="447.75" y1="109.2719" y2="109.2719"/><ellipse cx="303.75" cy="120.2719" fill="none" rx="3" ry="3" style="stroke: #038048; stroke-width: 1.0;"/><text fill="#000000" font-family="Noto Sans CJK JP" font-size="14" lengthAdjust="spacingAndGlyphs" textLength="121" x="311.75" y="129.5118">Luhmannのモデル</text><polygon fill="none" points="303.75,135.5438,307.75,139.5438,303.75,143.5438,299.75,139.5438" style="stroke: #B38D22; stroke-width: 1.0;"/><text fill="#000000" font-family="Noto Sans CJK JP" font-size="14" lengthAdjust="spacingAndGlyphs" textLength="70" x="311.75" y="149.7838">情報の選択</text><polygon fill="none" points="303.75,155.8157,307.75,159.8157,303.75,163.8157,299.75,159.8157" style="stroke: #B38D22; stroke-width: 1.0;"/><text fill="#000000" font-family="Noto Sans CJK JP" font-size="14" lengthAdjust="spacingAndGlyphs" textLength="70" x="311.75" y="170.0557">表現の選択</text><polygon fill="none" points="303.75,176.0876,307.75,180.0876,303.75,184.0876,299.75,180.0876" style="stroke: #B38D22; stroke-width: 1.0;"/><text fill="#000000" font-family="Noto Sans CJK JP" font-size="14" lengthAdjust="spacingAndGlyphs" textLength="70" x="311.75" y="190.3276">理解の選択</text><polygon fill="none" points="303.75,196.3596,307.75,200.3596,303.75,204.3596,299.75,200.3596" style="stroke: #B38D22; stroke-width: 1.0;"/><text fill="#000000" font-family="Noto Sans CJK JP" font-size="14" lengthAdjust="spacingAndGlyphs" textLength="112" x="311.75" y="210.5995">理解の受容の選択</text><line style="stroke: #9090FF; stroke-width: 1.5;" x1="293.75" x2="447.75" y1="218.6315" y2="218.6315"/><!--MD5=[b28d3388693b96f8bffbc692d7326765]
class メディア--><rect fill="#FFFFFF" height="127.3596" id="メディア" style="stroke: #9090FF; stroke-width: 1.5;" width="165" x="288.25" y="262.5"/><rect fill="#DDDDFF" height="30.2719" style="stroke: #9090FF; stroke-width: 1.5;" width="165" x="288.25" y="262.5"/><ellipse cx="338.75" cy="277.636" fill="#FFFFFF" rx="10" ry="10" style="stroke: #9090FF; stroke-width: 1.0;"/><path d="M338.5313,283.3078 C340.1563,283.3078 341.5469,282.0578 341.5469,279.8235 C341.5469,277.6672 340.3281,276.6672 339.0781,276.6672 C338.75,276.6672 338.4844,276.7453 338.2031,276.8547 L338.3906,274.7297 L341.2344,274.7297 L341.2344,272.9953 L336.6094,272.9953 L336.3438,277.9485 L337.2813,278.5578 C337.7031,278.2453 337.9219,278.1203 338.3125,278.1203 C338.9688,278.1203 339.4844,278.761 339.4844,279.8547 C339.4844,281.011 338.9688,281.6203 338.25,281.6203 C337.5625,281.6203 337.0313,281.2453 336.6094,280.7766 L335.6406,282.0578 C336.3125,282.7766 337.2031,283.3078 338.5313,283.3078 Z "/><text fill="#000000" font-family="Noto Sans CJK JP" font-size="14" lengthAdjust="spacingAndGlyphs" textLength="56" x="357.75" y="283.7399">メディア</text><line style="stroke: #9090FF; stroke-width: 1.5;" x1="289.25" x2="452.25" y1="292.7719" y2="292.7719"/><ellipse cx="299.25" cy="303.7719" fill="none" rx="3" ry="3" style="stroke: #038048; stroke-width: 1.0;"/><text fill="#000000" font-family="Noto Sans CJK JP" font-size="14" lengthAdjust="spacingAndGlyphs" textLength="84" x="307.25" y="313.0118">現実イメージ</text><ellipse cx="299.25" cy="324.0438" fill="none" rx="3" ry="3" style="stroke: #038048; stroke-width: 1.0;"/><text fill="#000000" font-family="Noto Sans CJK JP" font-size="14" lengthAdjust="spacingAndGlyphs" textLength="140" x="307.25" y="333.2838">メディア・リテラシー</text><polygon fill="none" points="299.25,339.3157,303.25,343.3157,299.25,347.3157,295.25,343.3157" style="stroke: #B38D22; stroke-width: 1.0;"/><text fill="#000000" font-family="Noto Sans CJK JP" font-size="14" lengthAdjust="spacingAndGlyphs" textLength="84" x="307.25" y="353.5557">伝播メディア</text><polygon fill="none" points="299.25,359.5876,303.25,363.5876,299.25,367.5876,295.25,363.5876" style="stroke: #B38D22; stroke-width: 1.0;"/><text fill="#000000" font-family="Noto Sans CJK JP" font-size="14" lengthAdjust="spacingAndGlyphs" textLength="84" x="307.25" y="373.8276">成果メディア</text><line style="stroke: #9090FF; stroke-width: 1.5;" x1="289.25" x2="452.25" y1="381.8596" y2="381.8596"/><!--MD5=[abb70a167332d26344116297a91da300]
class 問題--><rect fill="#FFFFFF" height="107.0876" id="問題" style="stroke: #9090FF; stroke-width: 1.5;" width="81" x="126.25" y="707.5"/><rect fill="#DDDDFF" height="30.2719" style="stroke: #9090FF; stroke-width: 1.5;" width="81" x="126.25" y="707.5"/><ellipse cx="150.6" cy="722.636" fill="#FFFFFF" rx="10" ry="10" style="stroke: #9090FF; stroke-width: 1.0;"/><path d="M150.2406,726.7297 C149.6781,726.7297 149.2094,726.0422 149.0844,724.1516 C149.4594,723.5266 149.8813,723.3235 150.2406,723.3235 C150.7406,723.3235 151.1156,723.8235 151.1156,724.9797 C151.1156,726.1672 150.7719,726.7297 150.2406,726.7297 Z M152.9438,718.9953 C152.4594,718.3703 151.6469,717.8391 150.6313,717.8391 C148.725,717.8391 147.1625,719.4641 147.1625,723.3391 C147.1625,726.7141 148.6781,728.3078 150.3031,728.3078 C151.7719,728.3078 153.0219,727.0422 153.0219,724.9797 C153.0219,722.8391 151.975,721.8391 150.7094,721.8391 C150.0688,721.8391 149.5219,722.1516 149.0844,722.6985 C149.2094,720.3078 149.9125,719.511 150.6625,719.511 C151.1156,719.511 151.5688,719.8235 151.8344,720.2297 L152.9438,718.9953 Z "/><text fill="#000000" font-family="Noto Sans CJK JP" font-size="14" lengthAdjust="spacingAndGlyphs" textLength="28" x="165.9" y="728.7399">問題</text><line style="stroke: #9090FF; stroke-width: 1.5;" x1="127.25" x2="206.25" y1="737.7719" y2="737.7719"/><ellipse cx="137.25" cy="748.7719" fill="none" rx="3" ry="3" style="stroke: #038048; stroke-width: 1.0;"/><text fill="#000000" font-family="Noto Sans CJK JP" font-size="14" lengthAdjust="spacingAndGlyphs" textLength="42" x="145.25" y="758.0118">複雑性</text><ellipse cx="137.25" cy="769.0438" fill="none" rx="3" ry="3" style="stroke: #038048; stroke-width: 1.0;"/><text fill="#000000" font-family="Noto Sans CJK JP" font-size="14" lengthAdjust="spacingAndGlyphs" textLength="28" x="145.25" y="778.2838">問題</text><ellipse cx="137.25" cy="789.3157" fill="none" rx="3" ry="3" style="stroke: #038048; stroke-width: 1.0;"/><text fill="#000000" font-family="Noto Sans CJK JP" font-size="14" lengthAdjust="spacingAndGlyphs" textLength="56" x="145.25" y="798.5557">問題解決</text><line style="stroke: #9090FF; stroke-width: 1.5;" x1="127.25" x2="206.25" y1="806.5876" y2="806.5876"/><!--MD5=[90609271a5ebc5d32772745b30083481]
class 還元--><rect fill="#FFFFFF" height="127.3596" id="還元" style="stroke: #9090FF; stroke-width: 1.5;" width="81" x="330.25" y="752.5"/><rect fill="#DDDDFF" height="30.2719" style="stroke: #9090FF; stroke-width: 1.5;" width="81" x="330.25" y="752.5"/><ellipse cx="354.6" cy="767.636" fill="#FFFFFF" rx="10" ry="10" style="stroke: #9090FF; stroke-width: 1.0;"/><path d="M353.3656,773.386 L355.5219,773.386 C355.5375,769.5735 356.0219,767.2766 357.7094,764.511 L357.7094,763.2453 L352.0063,763.2453 L352.0063,764.9641 L355.5688,764.9641 C354.1156,767.6672 353.5688,769.6828 353.3656,773.386 Z "/><text fill="#000000" font-family="Noto Sans CJK JP" font-size="14" lengthAdjust="spacingAndGlyphs" textLength="28" x="369.9" y="773.7399">還元</text><line style="stroke: #9090FF; stroke-width: 1.5;" x1="331.25" x2="410.25" y1="782.7719" y2="782.7719"/><ellipse cx="341.25" cy="793.7719" fill="none" rx="3" ry="3" style="stroke: #038048; stroke-width: 1.0;"/><text fill="#000000" font-family="Noto Sans CJK JP" font-size="14" lengthAdjust="spacingAndGlyphs" textLength="56" x="349.25" y="803.0118">還元主義</text><ellipse cx="341.25" cy="814.0438" fill="none" rx="3" ry="3" style="stroke: #038048; stroke-width: 1.0;"/><text fill="#000000" font-family="Noto Sans CJK JP" font-size="14" lengthAdjust="spacingAndGlyphs" textLength="28" x="349.25" y="823.2838">集合</text><ellipse cx="341.25" cy="834.3157" fill="none" rx="3" ry="3" style="stroke: #038048; stroke-width: 1.0;"/><text fill="#000000" font-family="Noto Sans CJK JP" font-size="14" lengthAdjust="spacingAndGlyphs" textLength="36" x="349.25" y="843.5557">MECE</text><ellipse cx="341.25" cy="854.5876" fill="none" rx="3" ry="3" style="stroke: #038048; stroke-width: 1.0;"/><text fill="#000000" font-family="Noto Sans CJK JP" font-size="14" lengthAdjust="spacingAndGlyphs" textLength="42" x="349.25" y="863.8276">モデル</text><line style="stroke: #9090FF; stroke-width: 1.5;" x1="331.25" x2="410.25" y1="871.8596" y2="871.8596"/><!--MD5=[7d587de92efb2d6c6e84cee832a0523d]
class システム--><rect fill="#FFFFFF" height="208.4472" id="システム" style="stroke: #9090FF; stroke-width: 1.5;" width="151" x="295.25" y="509"/><rect fill="#DDDDFF" height="30.2719" style="stroke: #9090FF; stroke-width: 1.5;" width="151" x="295.25" y="509"/><ellipse cx="338.75" cy="524.136" fill="#FFFFFF" rx="10" ry="10" style="stroke: #9090FF; stroke-width: 1.0;"/><path d="M338.75,529.8078 C340.6563,529.8078 341.7344,528.6203 341.7344,527.1203 C341.7344,525.7922 341.0313,524.9953 340.2344,524.4172 L340.2344,524.3547 C340.8594,523.8078 341.3906,523.011 341.3906,521.9328 C341.3906,520.4172 340.3594,519.3391 338.7969,519.3391 C337.1406,519.3391 335.9844,520.3703 335.9844,521.9485 C335.9844,522.9953 336.5313,523.8703 337.1875,524.4485 L337.1875,524.4953 C336.3906,525.1203 335.7656,525.7922 335.7656,527.1516 C335.7656,528.6828 336.9375,529.8078 338.75,529.8078 Z M339.0625,523.7297 C338.3594,523.3235 337.875,522.7297 337.875,521.9328 C337.875,521.1828 338.2344,520.7766 338.75,520.7766 C339.3281,520.7766 339.6719,521.3235 339.6719,522.0422 C339.6719,522.6828 339.4688,523.2297 339.0625,523.7297 Z M338.7656,528.3703 C338.0781,528.3703 337.6094,527.8547 337.6094,527.0422 C337.6094,526.2453 337.9063,525.6672 338.2969,525.2297 C339.2188,525.8078 339.7344,526.3078 339.7344,527.2297 C339.7344,527.9485 339.4063,528.3703 338.7656,528.3703 Z "/><text fill="#000000" font-family="Noto Sans CJK JP" font-size="14" lengthAdjust="spacingAndGlyphs" textLength="56" x="357.75" y="530.2399">システム</text><line style="stroke: #9090FF; stroke-width: 1.5;" x1="296.25" x2="445.25" y1="539.2719" y2="539.2719"/><ellipse cx="306.25" cy="550.2719" fill="none" rx="3" ry="3" style="stroke: #038048; stroke-width: 1.0;"/><text fill="#000000" font-family="Noto Sans CJK JP" font-size="14" lengthAdjust="spacingAndGlyphs" textLength="56" x="314.25" y="559.5118">構造主義</text><ellipse cx="306.25" cy="570.5438" fill="none" rx="3" ry="3" style="stroke: #038048; stroke-width: 1.0;"/><text fill="#000000" font-family="Noto Sans CJK JP" font-size="14" lengthAdjust="spacingAndGlyphs" textLength="28" x="314.25" y="579.7838">構造</text><ellipse cx="306.25" cy="590.8157" fill="none" rx="3" ry="3" style="stroke: #038048; stroke-width: 1.0;"/><text fill="#000000" font-family="Noto Sans CJK JP" font-size="14" lengthAdjust="spacingAndGlyphs" textLength="28" x="314.25" y="600.0557">状態</text><ellipse cx="306.25" cy="611.0876" fill="none" rx="3" ry="3" style="stroke: #038048; stroke-width: 1.0;"/><text fill="#000000" font-family="Noto Sans CJK JP" font-size="14" lengthAdjust="spacingAndGlyphs" textLength="126" x="314.25" y="620.3276">オートポイエーシス</text><ellipse cx="306.25" cy="631.3596" fill="none" rx="3" ry="3" style="stroke: #038048; stroke-width: 1.0;"/><text fill="#000000" font-family="Noto Sans CJK JP" font-size="14" lengthAdjust="spacingAndGlyphs" textLength="70" x="314.25" y="640.5995">機能的分化</text><ellipse cx="306.25" cy="651.6315" fill="none" rx="3" ry="3" style="stroke: #038048; stroke-width: 1.0;"/><text fill="#000000" font-family="Noto Sans CJK JP" font-size="14" lengthAdjust="spacingAndGlyphs" textLength="70" x="314.25" y="660.8714">準分解可能</text><polygon fill="none" points="306.25,666.9034,310.25,670.9034,306.25,674.9034,302.25,670.9034" style="stroke: #B38D22; stroke-width: 1.0;"/><text fill="#000000" font-family="Noto Sans CJK JP" font-size="14" lengthAdjust="spacingAndGlyphs" textLength="84" x="314.25" y="681.1433">心理システム</text><polygon fill="none" points="306.25,687.1753,310.25,691.1753,306.25,695.1753,302.25,691.1753" style="stroke: #B38D22; stroke-width: 1.0;"/><text fill="#000000" font-family="Noto Sans CJK JP" font-size="14" lengthAdjust="spacingAndGlyphs" textLength="84" x="314.25" y="701.4152">社会システム</text><line style="stroke: #9090FF; stroke-width: 1.5;" x1="296.25" x2="445.25" y1="709.4472" y2="709.4472"/><!--MD5=[66ac2a1219d743bc7dc721c4969eff23]
class 創発--><rect fill="#FFFFFF" height="147.6315" id="創発" style="stroke: #9090FF; stroke-width: 1.5;" width="123" x="105.25" y="524"/><rect fill="#DDDDFF" height="30.2719" style="stroke: #9090FF; stroke-width: 1.5;" width="123" x="105.25" y="524"/><ellipse cx="148.75" cy="539.136" fill="#FFFFFF" rx="10" ry="10" style="stroke: #9090FF; stroke-width: 1.0;"/><path d="M149.1094,539.3235 C148.6094,539.3235 148.2344,538.7922 148.2344,537.6672 C148.2344,536.4797 148.5781,535.9016 149.1094,535.9016 C149.6719,535.9016 150.1406,536.5891 150.2656,538.4953 C149.8906,539.1047 149.4688,539.3235 149.1094,539.3235 Z M146.4063,543.636 C146.8906,544.2766 147.7031,544.8078 148.7188,544.8078 C150.625,544.8078 152.1875,543.1672 152.1875,539.2922 C152.1875,535.9172 150.6719,534.3391 149.0469,534.3391 C147.5781,534.3391 146.3281,535.5891 146.3281,537.6672 C146.3281,539.7922 147.375,540.7922 148.6406,540.7922 C149.2813,540.7922 149.8281,540.4797 150.2656,539.9328 C150.1406,542.3235 149.4375,543.1203 148.6875,543.1203 C148.2344,543.1203 147.7813,542.8235 147.5156,542.4016 L146.4063,543.636 Z "/><text fill="#000000" font-family="Noto Sans CJK JP" font-size="14" lengthAdjust="spacingAndGlyphs" textLength="28" x="167.75" y="545.2399">創発</text><line style="stroke: #9090FF; stroke-width: 1.5;" x1="106.25" x2="227.25" y1="554.2719" y2="554.2719"/><ellipse cx="116.25" cy="565.2719" fill="none" rx="3" ry="3" style="stroke: #038048; stroke-width: 1.0;"/><text fill="#000000" font-family="Noto Sans CJK JP" font-size="14" lengthAdjust="spacingAndGlyphs" textLength="56" x="124.25" y="574.5118">創発主義</text><ellipse cx="116.25" cy="585.5438" fill="none" rx="3" ry="3" style="stroke: #038048; stroke-width: 1.0;"/><text fill="#000000" font-family="Noto Sans CJK JP" font-size="14" lengthAdjust="spacingAndGlyphs" textLength="56" x="124.25" y="594.7838">アイデア</text><ellipse cx="116.25" cy="605.8157" fill="none" rx="3" ry="3" style="stroke: #038048; stroke-width: 1.0;"/><text fill="#000000" font-family="Noto Sans CJK JP" font-size="14" lengthAdjust="spacingAndGlyphs" textLength="98" x="124.25" y="615.0557">イノベーション</text><polygon fill="none" points="116.25,621.0876,120.25,625.0876,116.25,629.0876,112.25,625.0876" style="stroke: #B38D22; stroke-width: 1.0;"/><text fill="#000000" font-family="Noto Sans CJK JP" font-size="14" lengthAdjust="spacingAndGlyphs" textLength="70" x="124.25" y="635.3276">思考の発散</text><polygon fill="none" points="116.25,641.3596,120.25,645.3596,116.25,649.3596,112.25,645.3596" style="stroke: #B38D22; stroke-width: 1.0;"/><text fill="#000000" font-family="Noto Sans CJK JP" font-size="14" lengthAdjust="spacingAndGlyphs" textLength="70" x="124.25" y="655.5995">思考の収束</text><line style="stroke: #9090FF; stroke-width: 1.5;" x1="106.25" x2="227.25" y1="663.6315" y2="663.6315"/><!--MD5=[5b27e463ea5700b59b706a64066dc666]
class 介入--><rect fill="#FFFFFF" height="127.3596" id="介入" style="stroke: #9090FF; stroke-width: 1.5;" width="123" x="541.25" y="549.5"/><rect fill="#DDDDFF" height="30.2719" style="stroke: #9090FF; stroke-width: 1.5;" width="123" x="541.25" y="549.5"/><ellipse cx="584.75" cy="564.636" fill="#FFFFFF" rx="10" ry="10" style="stroke: #9090FF; stroke-width: 1.0;"/><path d="M583.75,568.5578 C584.5313,568.5578 585.1875,568.1828 585.7188,567.4953 L585.7656,567.4953 L585.9375,568.386 L587.5938,568.386 L587.5938,563.5891 C587.5938,561.4485 586.5156,560.3547 584.9063,560.3547 C583.8906,560.3547 582.9531,560.6985 581.9844,561.2766 L582.75,562.636 C583.5,562.1985 583.9688,561.9797 584.5,561.9797 C585.1094,561.9797 585.5313,562.5266 585.5469,563.3547 C583.1875,563.7297 581.7813,564.6203 581.7813,566.3547 C581.7813,567.6985 582.5313,568.5578 583.75,568.5578 Z M584.4531,566.9797 C584.0625,566.9797 583.75,566.7453 583.75,566.136 C583.75,565.3547 584.1875,564.886 585.5469,564.6047 L585.5469,566.261 C585.2656,566.6672 584.8594,566.9797 584.4531,566.9797 Z "/><text fill="#000000" font-family="Noto Sans CJK JP" font-size="14" lengthAdjust="spacingAndGlyphs" textLength="28" x="603.75" y="570.7399">介入</text><line style="stroke: #9090FF; stroke-width: 1.5;" x1="542.25" x2="663.25" y1="579.7719" y2="579.7719"/><ellipse cx="552.25" cy="590.7719" fill="none" rx="3" ry="3" style="stroke: #038048; stroke-width: 1.0;"/><text fill="#000000" font-family="Noto Sans CJK JP" font-size="14" lengthAdjust="spacingAndGlyphs" textLength="28" x="560.25" y="600.0118">意図</text><ellipse cx="552.25" cy="611.0438" fill="none" rx="3" ry="3" style="stroke: #038048; stroke-width: 1.0;"/><text fill="#000000" font-family="Noto Sans CJK JP" font-size="14" lengthAdjust="spacingAndGlyphs" textLength="98" x="560.25" y="620.2838">アフォーダンス</text><polygon fill="none" points="552.25,626.3157,556.25,630.3157,552.25,634.3157,548.25,630.3157" style="stroke: #B38D22; stroke-width: 1.0;"/><text fill="#000000" font-family="Noto Sans CJK JP" font-size="14" lengthAdjust="spacingAndGlyphs" textLength="84" x="560.25" y="640.5557">明示的な介入</text><polygon fill="none" points="552.25,646.5876,556.25,650.5876,552.25,654.5876,548.25,650.5876" style="stroke: #B38D22; stroke-width: 1.0;"/><text fill="#000000" font-family="Noto Sans CJK JP" font-size="14" lengthAdjust="spacingAndGlyphs" textLength="84" x="560.25" y="660.8276">暗示的な介入</text><line style="stroke: #9090FF; stroke-width: 1.5;" x1="542.25" x2="663.25" y1="668.8596" y2="668.8596"/><!--MD5=[013405255b34cf9d5d0e6494434a2575]
class 論理--><rect fill="#FFFFFF" height="167.9034" id="論理" style="stroke: #9090FF; stroke-width: 1.5;" width="123" x="541.25" y="712"/><rect fill="#DDDDFF" height="30.2719" style="stroke: #9090FF; stroke-width: 1.5;" width="123" x="541.25" y="712"/><ellipse cx="584.75" cy="727.136" fill="#FFFFFF" rx="10" ry="10" style="stroke: #9090FF; stroke-width: 1.0;"/><path d="M585.7813,732.8391 C587.0781,732.8391 588.2969,731.4953 588.2969,728.5735 C588.2969,725.9641 587.3906,724.6047 585.9219,724.6047 C585.3906,724.6047 584.8906,724.9016 584.4688,725.4172 L584.5156,724.1516 L584.5156,721.8235 L582.4688,721.8235 L582.4688,732.636 L584.0781,732.636 L584.2344,731.8391 L584.2969,731.8391 C584.7188,732.511 585.1875,732.8391 585.7813,732.8391 Z M585.2188,731.136 C584.9844,731.136 584.7344,731.011 584.5156,730.5422 L584.5156,726.9641 C584.7813,726.4953 585.0469,726.261 585.3281,726.261 C585.8594,726.261 586.1719,727.011 586.1719,728.6203 C586.1719,730.4328 585.7188,731.136 585.2188,731.136 Z "/><text fill="#000000" font-family="Noto Sans CJK JP" font-size="14" lengthAdjust="spacingAndGlyphs" textLength="28" x="603.75" y="733.2399">論理</text><line style="stroke: #9090FF; stroke-width: 1.5;" x1="542.25" x2="663.25" y1="742.2719" y2="742.2719"/><ellipse cx="552.25" cy="753.2719" fill="none" rx="3" ry="3" style="stroke: #038048; stroke-width: 1.0;"/><text fill="#000000" font-family="Noto Sans CJK JP" font-size="14" lengthAdjust="spacingAndGlyphs" textLength="28" x="560.25" y="762.5118">定義</text><ellipse cx="552.25" cy="773.5438" fill="none" rx="3" ry="3" style="stroke: #038048; stroke-width: 1.0;"/><text fill="#000000" font-family="Noto Sans CJK JP" font-size="14" lengthAdjust="spacingAndGlyphs" textLength="61" x="560.25" y="782.7838">命題/定理</text><ellipse cx="552.25" cy="793.8157" fill="none" rx="3" ry="3" style="stroke: #038048; stroke-width: 1.0;"/><text fill="#000000" font-family="Noto Sans CJK JP" font-size="14" lengthAdjust="spacingAndGlyphs" textLength="28" x="560.25" y="803.0557">推論</text><polygon fill="none" points="552.25,809.0876,556.25,813.0876,552.25,817.0876,548.25,813.0876" style="stroke: #B38D22; stroke-width: 1.0;"/><text fill="#000000" font-family="Noto Sans CJK JP" font-size="14" lengthAdjust="spacingAndGlyphs" textLength="28" x="560.25" y="823.3276">演繹</text><polygon fill="none" points="552.25,829.3596,556.25,833.3596,552.25,837.3596,548.25,833.3596" style="stroke: #B38D22; stroke-width: 1.0;"/><text fill="#000000" font-family="Noto Sans CJK JP" font-size="14" lengthAdjust="spacingAndGlyphs" textLength="28" x="560.25" y="843.5995">帰納</text><polygon fill="none" points="552.25,849.6315,556.25,853.6315,552.25,857.6315,548.25,853.6315" style="stroke: #B38D22; stroke-width: 1.0;"/><text fill="#000000" font-family="Noto Sans CJK JP" font-size="14" lengthAdjust="spacingAndGlyphs" textLength="98" x="560.25" y="863.8714">アブダクション</text><line style="stroke: #9090FF; stroke-width: 1.5;" x1="542.25" x2="663.25" y1="871.9034" y2="871.9034"/><!--MD5=[bbacbf11bc84e3278e98cfce06d00820]
link 情報 to 表現と内容--><path d="M166.75,271.27 C166.75,259.75 166.75,248.23 166.75,236.72 " fill="none" id="情報-表現と内容" style="stroke: #FF9090; stroke-width: 3.0;"/><!--MD5=[1d70eb0fa7fed1c813d471eaf0ddbdd2]
link 情報 to コミュニケーション--><path d="M207.66,291.02 C231.92,270.36 263.71,243.29 292.71,218.6 " fill="none" id="情報-コミュニケーション" style="stroke: #FF9090; stroke-width: 3.0;"/><!--MD5=[34b99b9dac3fe11e143f600389c474f8]
link 情報 to メディア--><path d="M207.66,325.2 C230.65,325.31 260.42,325.46 288.15,325.6 " fill="none" id="情報-メディア" style="stroke: #FF9090; stroke-width: 3.0;"/><!--MD5=[f50a188574d858b28c56639570af0879]
link メディア to コミュニケーション--><path d="M370.75,262.48 C370.75,250.79 370.75,239.1 370.75,227.41 " fill="none" id="メディア-コミュニケーション" style="stroke: #FF9090; stroke-width: 3.0;"/><!--MD5=[f2b00f88517930894131a52586c67f9e]
link 問題 to 還元--><path d="M207.66,771.87 C243.07,781.51 294.54,795.52 329.92,805.16 " fill="none" id="問題-還元" style="stroke: #FF9090; stroke-width: 3.0;"/><!--MD5=[97406589821da55605ece053f53e4d22]
link 問題 to システム--><path d="M207.66,731.76 C232.61,713.48 265.53,689.36 295.18,667.64 " fill="none" id="問題-システム" style="stroke: #FF9090; stroke-width: 3.0;"/><!--MD5=[1812d6d8deb46a28d52d66806f83586e]
link 問題 to 創発--><path d="M166.75,707.2 C166.75,695.54 166.75,683.88 166.75,672.22 " fill="none" id="問題-創発" style="stroke: #FF9090; stroke-width: 3.0;"/><!--MD5=[99cc8ff5a24e1df4e608328a21367573]
link 創発 to システム--><path d="M228.36,602.5 C249.39,604.06 273.22,605.83 295.25,607.47 " fill="none" id="創発-システム" style="stroke: #FF9090; stroke-width: 3.0;"/><!--MD5=[1db63c9af3f2a11cd7d34cc55de80e3f]
link 還元 to システム--><path d="M370.75,752.17 C370.75,740.48 370.75,728.79 370.75,717.1 " fill="none" id="還元-システム" style="stroke: #FF9090; stroke-width: 3.0;"/><!--MD5=[645139c6be6289221d8ab9b54369e6b3]
link 創発 to 情報--><path d="M104.94,532.25 C77.94,499.04 49.27,456.51 35.25,412.5 C21.23,368.47 82.63,344.5 126.25,333.25 " fill="none" id="創発-情報" style="stroke: #FF9090; stroke-width: 3.0;"/><!--MD5=[02ae875002dd7ab37d49df5e3d3a192c]
link メディア to システム--><path d="M331.71,389.53 C314.23,429.27 309.78,469 318.36,508.74 " fill="none" id="メディア-システム" style="stroke: #FF9090; stroke-width: 3.0;"/><!--MD5=[06b518fbfa9791ca270361276b106ffd]
link 論理 to 介入--><path d="M602.75,711.65 C602.75,699.96 602.75,688.27 602.75,676.58 " fill="none" id="論理-介入" style="stroke: #FF9090; stroke-width: 3.0;"/><!--MD5=[0ae7dd582f7e5f4c57420b24d3d00925]
link コミュニケーション to 介入--><path d="M448.95,199.71 C465.45,212.65 481.44,227.91 493.25,245 C558,338.7 584.66,471.42 595.22,549.22 " fill="none" id="コミュニケーション-介入" style="stroke: #FF9090; stroke-width: 3.0;"/><!--MD5=[0adc66fa8b15c5749696b852a861f142]
link システム to 介入--><path d="M446.42,613 C477.12,613 512.2,613 541.25,613 " fill="none" id="システム-介入" style="stroke: #FF9090; stroke-width: 3.0;"/><!--MD5=[2b9c868f4fa0fdae0f1aaa9efbc14d3f]
link I to II--><!--MD5=[627a016fb0775341821216cb5f76cfb9]
link II to III--><!--MD5=[09ec3cad46f826560e37496112b7e142]
@startuml package
!include plantuml.puml

left to right direction

package I:情報/コミュニケーション/メディア as I {
	class 表現と内容 <<(2,transparent)>> {
		+表現
		+内容
		+符号化/復号
		+主観性
	}
	class 情報 <<(3,transparent)>> {
		#生命情報
		#社会情報
		#機械情報
	}
	class コミュニケーション <<(4,transparent)>> {
		+Luhmannのモデル
		#情報の選択
		#表現の選択
		#理解の選択
		#理解の受容の選択
	}
	class メディア <<(5,transparent)>> {
		+現実イメージ
		+メディア・リテラシー
		#伝播メディア
		#成果メディア
	}

	表現と内容-left-情報
	情報-コミュニケーション
	情報-down-メディア
	コミュニケーション-left-メディア
}

package II:問題解決 as II {
	class 問題 <<(6,transparent)>> {
		+複雑性
		+問題
		+問題解決
	}
	class 還元 <<(7,transparent)>> {
		+還元主義
		+集合
		+MECE
		+モデル
	}
	class システム <<(8,transparent)>> {
		+構造主義
		+構造
		+状態
		+オートポイエーシス
		+機能的分化
		+準分解可能
		#心理システム
		#社会システム
	}
	class 創発 <<(9,transparent)>> {
		+創発主義
		+アイデア
		+イノベーション
		#思考の発散
		#思考の収束
	}
	問題-right-還元
	問題-right-システム
	問題-right-創発
	創発-down-システム
	システム-left-還元
	情報-left-創発
	メディア-システム
}

package III:応用 as III {
	class 介入 <<(a,transparent)>> {
		+意図
		+アフォーダンス
		#明示的な介入
		#暗示的な介入
	}
	class 論理 <<(b,transparent)>> {
		+定義
		+命題/定理
		+推論
		#演繹
		#帰納
		#アブダクション
	}
	介入-left-論理
	コミュニケーション-down-介入
	システム-down-介入
}
I-left[hidden]-II
II-down[hidden]-III
@enduml

@startuml package
skinparam Shadowing false
skinparam PackageBorderColor #909090

skinparam ClassBorderColor #9090ff
skinparam ClassBackgroundColor transparent
skinparam ClassHeaderBackgroundColor #ddddff

skinparam ActivityBackgroundColor #ddddff
skinparam ActivityBorderColor #9090ff
skinparam ActivityDiamondBackgroundColor #ddddff
skinparam ActivityDiamondBorderColor #9090ff
skinparam ActivityEndColor #009000
skinparam ActivityStartColor #009000

skinparam ArrowColor #ff9090
skinparam ArrowThickness 3
skinparam DefaultFontName "Noto Sans CJK JP"
skinparam DefaultFontSize 14

left to right direction

package I:情報/コミュニケーション/メディア as I {
	class 表現と内容 <<(2,transparent)>> {
		+表現
		+内容
		+符号化/復号
		+主観性
	}
	class 情報 <<(3,transparent)>> {
		#生命情報
		#社会情報
		#機械情報
	}
	class コミュニケーション <<(4,transparent)>> {
		+Luhmannのモデル
		#情報の選択
		#表現の選択
		#理解の選択
		#理解の受容の選択
	}
	class メディア <<(5,transparent)>> {
		+現実イメージ
		+メディア・リテラシー
		#伝播メディア
		#成果メディア
	}

	表現と内容-left-情報
	情報-コミュニケーション
	情報-down-メディア
	コミュニケーション-left-メディア
}

package II:問題解決 as II {
	class 問題 <<(6,transparent)>> {
		+複雑性
		+問題
		+問題解決
	}
	class 還元 <<(7,transparent)>> {
		+還元主義
		+集合
		+MECE
		+モデル
	}
	class システム <<(8,transparent)>> {
		+構造主義
		+構造
		+状態
		+オートポイエーシス
		+機能的分化
		+準分解可能
		#心理システム
		#社会システム
	}
	class 創発 <<(9,transparent)>> {
		+創発主義
		+アイデア
		+イノベーション
		#思考の発散
		#思考の収束
	}
	問題-right-還元
	問題-right-システム
	問題-right-創発
	創発-down-システム
	システム-left-還元
	情報-left-創発
	メディア-システム
}

package III:応用 as III {
	class 介入 <<(a,transparent)>> {
		+意図
		+アフォーダンス
		#明示的な介入
		#暗示的な介入
	}
	class 論理 <<(b,transparent)>> {
		+定義
		+命題/定理
		+推論
		#演繹
		#帰納
		#アブダクション
	}
	介入-left-論理
	コミュニケーション-down-介入
	システム-down-介入
}
I-left[hidden]-II
II-down[hidden]-III
@enduml

PlantUML version 1.2020.10(Sun May 17 18:35:57 JST 2020)
(GPL source distribution)
Java Runtime: OpenJDK Runtime Environment
JVM: OpenJDK 64-Bit Server VM
Java Version: 1.8.0_265-b01
Operating System: Linux
Default Encoding: UTF-8
Language: ja
Country: JP
--></g></svg>